<svg width="33" height="33" viewBox="0 0 33 33" fill="none" xmlns="http://www.w3.org/2000/svg">
<g clip-path="url(#clip0_5324_4405)">
<path fill-rule="evenodd" clip-rule="evenodd" d="M16.5 17.8334C19.694 17.8334 22.6004 18.7583 24.7369 20.0621C25.8048 20.7137 26.7161 21.4818 27.3747 22.3154C28.0227 23.1357 28.5 24.1174 28.5 25.1667C28.5 26.2933 27.9519 27.1815 27.1631 27.8146C26.4157 28.4146 25.4309 28.8116 24.3837 29.0889C22.2804 29.6458 19.472 29.8334 16.5 29.8334C13.528 29.8334 10.7195 29.6458 8.61621 29.0889C7.56909 28.8116 6.58432 28.4146 5.83688 27.8146C5.04819 27.1815 4.5 26.2933 4.5 25.1667C4.5 24.1174 4.9774 23.1357 5.62529 22.3154C6.28384 21.4818 7.19524 20.7137 8.26303 20.0621C10.3996 18.7583 13.306 17.8334 16.5 17.8334ZM16.5 20.5001C13.8029 20.5001 11.3761 21.2865 9.65203 22.3385C8.78952 22.8647 8.13884 23.4354 7.71785 23.9685C7.28623 24.5149 7.16667 24.9275 7.16667 25.1667C7.16667 25.3289 7.21543 25.5017 7.50627 25.7351C7.83835 26.0017 8.41568 26.2771 9.29885 26.511C11.0561 26.9763 13.5809 27.1667 16.5 27.1667C19.4191 27.1667 21.9439 26.9763 23.7012 26.511C24.5843 26.2771 25.1616 26.0017 25.4937 25.7351C25.7845 25.5017 25.8333 25.3289 25.8333 25.1667C25.8333 24.9275 25.7137 24.5149 25.2821 23.9685C24.8612 23.4354 24.2105 22.8647 23.348 22.3385C21.6239 21.2865 19.1971 20.5001 16.5 20.5001ZM16.5 3.16675C20.1819 3.16675 23.1667 6.15152 23.1667 9.83342C23.1667 13.5153 20.1819 16.5001 16.5 16.5001C12.8181 16.5001 9.83333 13.5153 9.83333 9.83342C9.83333 6.15152 12.8181 3.16675 16.5 3.16675ZM16.5 5.83341C14.2908 5.83341 12.5 7.62428 12.5 9.83342C12.5 12.0425 14.2908 13.8334 16.5 13.8334C18.7092 13.8334 20.5 12.0425 20.5 9.83342C20.5 7.62428 18.7092 5.83341 16.5 5.83341Z" fill="#737373"/>
</g>
<defs>
<clipPath id="clip0_5324_4405">
<rect width="32" height="32" fill="white" transform="translate(0.5 0.5)"/>
</clipPath>
</defs>
</svg>
