<svg width="32" height="32" viewBox="0 0 32 32" fill="none" xmlns="http://www.w3.org/2000/svg">
<g id="&#233;&#161;&#181;&#233;&#157;&#162;-1">
<g id="Map">
<g id="map_pin_line">
<path id="&#229;&#189;&#162;&#231;&#138;&#182;" fill-rule="evenodd" clip-rule="evenodd" d="M16 5.33329C13.7908 5.33329 12 7.12416 12 9.33329C12 11.5424 13.7908 13.3333 16 13.3333C18.2092 13.3333 20 11.5424 20 9.33329C20 7.12416 18.2092 5.33329 16 5.33329ZM9.33333 9.33329C9.33333 5.6514 12.3181 2.66663 16 2.66663C19.6819 2.66663 22.6667 5.6514 22.6667 9.33329C22.6667 12.5586 20.3763 15.2489 17.3333 15.8666V22.6666C17.3333 23.403 16.7364 24 16 24C15.2636 24 14.6667 23.403 14.6667 22.6666V15.8666C11.6237 15.2489 9.33333 12.5586 9.33333 9.33329ZM12.6515 21.4677C12.7623 22.1957 12.2621 22.8757 11.5341 22.9865C9.83099 23.2458 8.47683 23.6381 7.58769 24.0736C5.96208 24.8697 7.86241 25.4408 8.85523 25.751C10.6247 26.304 13.151 26.6666 16 26.6666C18.8491 26.6666 21.3753 26.304 23.1448 25.751C24.1435 25.4389 26.0387 24.8701 24.4123 24.0736C23.5232 23.6381 22.1691 23.2458 20.466 22.9865C19.738 22.8757 19.2377 22.1957 19.3485 21.4677C19.4593 20.7397 20.1395 20.2394 20.8673 20.3502C22.7167 20.6318 24.3625 21.0798 25.5852 21.6788C26.7637 22.2558 28 23.2273 28 24.6666C28 25.7485 27.3009 26.534 26.6208 27.0365C23.7559 29.1532 19.3825 29.3333 16 29.3333C12.958 29.3333 10.151 28.9498 8.05983 28.2962C6.39405 27.7757 4 26.7498 4 24.6666C4 23.2273 5.23631 22.2558 6.41473 21.6788C7.63753 21.0798 9.28337 20.6318 11.1326 20.3502C11.8606 20.2394 12.5406 20.7397 12.6515 21.4677Z" fill="#001AFF"/>
</g>
</g>
</g>
</svg>
