<svg width="24" height="24" viewBox="0 0 24 24" fill="none" xmlns="http://www.w3.org/2000/svg">
<g clip-path="url(#clip0_5372_7450)">
<path d="M9 20C9.55228 20 10 20.4477 10 21C10 21.5523 9.55228 22 9 22C8.44772 22 8 21.5523 8 21C8 20.4477 8.44772 20 9 20ZM16 20C16.5523 20 17 20.4477 17 21C17 21.5523 16.5523 22 16 22C15.4477 22 15 21.5523 15 21C15 20.4477 15.4477 20 16 20ZM3.49503 2.63103L3.60006 2.70006L5.30781 3.98087C5.60023 4.20019 5.82529 4.49412 5.96118 4.82919L6.0216 5H18.8672C20.0201 5 20.923 5.96833 20.8649 7.09965L20.8518 7.24807L20.3948 10.9035C20.1111 13.174 18.3256 14.9517 16.0752 15.2421L15.8487 15.2661L8.53605 15.8755L8.79557 17.0001H17.5001C18.0523 17.0001 18.5001 17.4478 18.5001 18.0001C18.5001 18.5129 18.114 18.9356 17.6167 18.9934L17.5001 19.0001H8.79557C7.91904 19.0001 7.15169 18.4306 6.88986 17.6071L6.84679 17.4498L4.10781 5.58087L2.40006 4.30006C1.95823 3.96869 1.86869 3.34189 2.20006 2.90006C2.48045 2.5262 2.97236 2.40458 3.38475 2.57676L3.49503 2.63103ZM18.8672 7H6.48787L8.08165 13.9064L15.6826 13.273C17.0964 13.1552 18.2343 12.0632 18.4103 10.6555L18.8672 7Z" fill="white"/>
</g>
<defs>
<clipPath id="clip0_5372_7450">
<rect width="24" height="24" fill="white"/>
</clipPath>
</defs>
</svg>
