<svg width="33" height="33" viewBox="0 0 33 33" fill="none" xmlns="http://www.w3.org/2000/svg">
<g clip-path="url(#clip0_5324_4398)">
<path d="M12.5 27.1666C13.2364 27.1666 13.8333 27.7635 13.8333 28.4999C13.8333 29.2363 13.2364 29.8333 12.5 29.8333C11.7636 29.8333 11.1667 29.2363 11.1667 28.4999C11.1667 27.7635 11.7636 27.1666 12.5 27.1666ZM21.8333 27.1666C22.5697 27.1666 23.1667 27.7635 23.1667 28.4999C23.1667 29.2363 22.5697 29.8333 21.8333 29.8333C21.0969 29.8333 20.5 29.2363 20.5 28.4999C20.5 27.7635 21.0969 27.1666 21.8333 27.1666ZM5.16003 4.00796L5.30007 4.1L7.57707 5.80774C7.96697 6.10017 8.26704 6.49208 8.44824 6.93884L8.52879 7.16659H25.6563C27.1934 7.16659 28.3973 8.45769 28.3198 9.96611L28.3024 10.164L27.6931 15.0379C27.3147 18.0653 24.9341 20.4356 21.9337 20.8227L21.6316 20.8547L11.8814 21.6673L12.2274 23.1667H23.8335C24.5697 23.1667 25.1668 23.7637 25.1668 24.5C25.1668 25.1837 24.652 25.7474 23.9889 25.8244L23.8335 25.8334H12.2274C11.0587 25.8334 10.0356 25.0741 9.68647 23.9761L9.62904 23.7663L5.97707 7.94108L3.70007 6.23333C3.11096 5.7915 2.99158 4.95577 3.4334 4.36666C3.80726 3.86819 4.46314 3.70602 5.01299 3.93559L5.16003 4.00796ZM25.6563 9.83325H9.15048L11.2755 19.0418L21.4101 18.1973C23.2952 18.0402 24.8124 16.5842 25.0471 14.7073L25.6563 9.83325Z" fill="#737373"/>
</g>
<defs>
<clipPath id="clip0_5324_4398">
<rect width="32" height="32" fill="white" transform="translate(0.5 0.5)"/>
</clipPath>
</defs>
</svg>
