<svg width="205" height="92" viewBox="0 0 205 92" fill="none" xmlns="http://www.w3.org/2000/svg">
<g clip-path="url(#clip0_5324_3699)">
<path d="M38.3279 13.5C35.477 13.5 32.743 14.589 30.7272 16.5276L24.1483 22.8541C22.1325 24.7926 21 27.4217 21 30.1632C21 35.8721 25.8125 40.5 31.7491 40.5C34.5999 40.5 37.3339 39.4109 39.3498 37.4724L43.9004 33.0963C43.9004 33.0962 43.9005 33.0964 43.9004 33.0963L57.1593 20.3459C58.1221 19.4201 59.4279 18.9 60.7894 18.9C63.0689 18.9 65.0014 20.3287 65.6714 22.3057L69.8559 18.2817C67.9469 15.4065 64.5997 13.5 60.7894 13.5C57.9386 13.5 55.2045 14.589 53.1887 16.5276L35.3791 33.6541C34.4164 34.5799 33.1106 35.1 31.7491 35.1C28.9138 35.1 26.6154 32.8898 26.6154 30.1632C26.6154 28.8539 27.1562 27.5982 28.119 26.6724L34.6978 20.3459C35.6606 19.4201 36.9663 18.9 38.3279 18.9C40.6074 18.9 42.5399 20.3287 43.2099 22.3058L47.3945 18.2818C45.4855 15.4066 42.1383 13.5 38.3279 13.5Z" fill="#A6AFFF"/>
<path d="M57.8404 33.6541C56.8777 34.5799 55.5719 35.1 54.2104 35.1C51.9312 35.1 49.9988 33.6717 49.3286 31.695L45.1442 35.7189C47.0533 38.5937 50.4003 40.5 54.2104 40.5C57.0612 40.5 59.7952 39.4109 61.8111 37.4724L79.6206 20.3459C80.5834 19.4201 81.8891 18.9 83.2507 18.9C86.086 18.9 88.3844 21.1103 88.3844 23.8368C88.3844 25.1461 87.8435 26.4018 86.8808 27.3276L80.302 33.6541C79.3392 34.5799 78.0334 35.1 76.6719 35.1C74.3925 35.1 72.4601 33.6714 71.79 31.6946L67.6056 35.7186C69.5145 38.5936 72.8617 40.5 76.6719 40.5C79.5227 40.5 82.2568 39.4109 84.2726 37.4724L90.8514 31.1459C92.8672 29.2074 93.9997 26.5783 93.9997 23.8368C93.9997 18.1279 89.1873 13.5 83.2507 13.5C80.3998 13.5 77.6658 14.589 75.65 16.5276L57.8404 33.6541Z" fill="#A6AFFF"/>
</g>
<path d="M10.0767 63.5432H14.3269L9.09423 73.4862V78.3519H5.37794V73.4862L0.123886 63.5432H4.37412L7.23608 69.6571L10.0767 63.5432Z" fill="white"/>
<path d="M22.1151 78.5C21.0472 78.5 20.0505 78.3167 19.125 77.95C18.1994 77.5833 17.3807 77.0685 16.6688 76.4056C15.9711 75.7286 15.4229 74.9318 15.0242 74.0151C14.6255 73.0842 14.4262 72.0617 14.4262 70.9475C14.4262 69.8334 14.6255 68.8179 15.0242 67.9012C15.4229 66.9703 15.9711 66.1735 16.6688 65.5106C17.3807 64.8337 18.1994 64.3118 19.125 63.9451C20.0505 63.5784 21.0472 63.3951 22.1151 63.3951C23.183 63.3951 24.1797 63.5784 25.1052 63.9451C26.0449 64.3118 26.8637 64.8337 27.5613 65.5106C28.259 66.1735 28.8072 66.9703 29.2059 67.9012C29.6046 68.8179 29.8039 69.8334 29.8039 70.9475C29.8039 72.0617 29.6046 73.0842 29.2059 74.0151C28.8072 74.9318 28.2519 75.7286 27.54 76.4056C26.8423 77.0685 26.0307 77.5833 25.1052 77.95C24.1797 78.3167 23.183 78.5 22.1151 78.5ZM22.1151 75.3479C22.8982 75.3479 23.5817 75.1575 24.1654 74.7767C24.7492 74.3959 25.2049 73.874 25.5323 73.2112C25.8598 72.5483 26.0236 71.7938 26.0236 70.9475C26.0236 70.0872 25.8598 69.3327 25.5323 68.6839C25.2049 68.0211 24.7492 67.4992 24.1654 67.1184C23.5817 66.7376 22.8982 66.5472 22.1151 66.5472C21.3177 66.5472 20.6271 66.7376 20.0434 67.1184C19.4596 67.4992 19.0039 68.0211 18.6764 68.6839C18.3632 69.3327 18.2066 70.0872 18.2066 70.9475C18.2066 71.7938 18.3632 72.5483 18.6764 73.2112C19.0039 73.874 19.4596 74.3959 20.0434 74.7767C20.6271 75.1575 21.3177 75.3479 22.1151 75.3479Z" fill="white"/>
<path d="M31.9267 63.5432H35.643V72.6823C35.643 73.2464 35.7569 73.733 35.9847 74.142C36.2125 74.5369 36.5329 74.8401 36.9458 75.0517C37.3588 75.2491 37.8429 75.3479 38.3982 75.3479C38.9677 75.3479 39.4661 75.2491 39.8932 75.0517C40.3204 74.8401 40.6479 74.5369 40.8757 74.142C41.1178 73.733 41.2388 73.2464 41.2388 72.6823V63.5432H44.9551V72.3438C44.9551 73.3734 44.7771 74.276 44.4211 75.0517C44.0652 75.8133 43.5739 76.455 42.9474 76.9768C42.3352 77.4845 41.6303 77.8653 40.833 78.1192C40.0356 78.3731 39.2027 78.5 38.3341 78.5C37.1665 78.5 36.0986 78.2743 35.1304 77.823C34.1622 77.3576 33.3862 76.6736 32.8024 75.771C32.2186 74.8542 31.9267 73.7118 31.9267 72.3438V63.5432Z" fill="white"/>
<path d="M56.2933 68.3666C56.2933 67.8307 56.1296 67.4076 55.8021 67.0973C55.4746 66.787 54.9762 66.6319 54.307 66.6319H51.381V70.1225H54.307C54.7484 70.1225 55.1115 70.059 55.3963 69.9321C55.6953 69.7911 55.916 69.5866 56.0584 69.3186C56.215 69.0506 56.2933 68.7333 56.2933 68.3666ZM54.542 63.5432C55.7807 63.5432 56.8059 63.7688 57.6175 64.2202C58.4433 64.6574 59.0556 65.2427 59.4543 65.976C59.8672 66.7094 60.0737 67.5063 60.0737 68.3666C60.0737 68.9589 59.9598 69.5442 59.7319 70.1225C59.5184 70.7007 59.1838 71.2226 58.7281 71.688C58.2867 72.1534 57.7172 72.5271 57.0195 72.8092C56.3218 73.0772 55.4959 73.2112 54.542 73.2112H51.381V78.3519H47.6647V63.5432H54.542ZM56.4215 71.9418L60.2018 78.3519H56.1011L52.5343 71.9418H56.4215Z" fill="white"/>
<path d="M72.2368 78.3519H67.6662L63.8431 63.5432H67.9011L69.9942 74.0151L72.5572 63.5432H76.7006L79.1995 73.9939L81.3139 63.5432H85.3506L81.5275 78.3519H76.9782L74.6075 68.7685L72.2368 78.3519Z" fill="white"/>
<path d="M84.3916 78.3519L89.8593 63.5432H95.7327L101.158 78.3519H97.3345L96.2666 75.3902H89.2826L88.2361 78.3519H84.3916ZM93.127 66.6319H92.3795L90.3718 72.3015H95.1347L93.127 66.6319Z" fill="white"/>
<path d="M109.67 63.5432H113.92L108.687 73.4862V78.3519H104.971V73.4862L99.717 63.5432H103.967L106.829 69.6571L109.67 63.5432Z" fill="white"/>
<path d="M6.74555 48.6004H9.62616L6.07968 55.3393V58.637H3.56095V55.3393L0 48.6004H2.88061L4.82032 52.7441L6.74555 48.6004Z" fill="white"/>
<path d="M14.9046 58.7374C14.1808 58.7374 13.5053 58.6131 12.878 58.3646C12.2508 58.1161 11.6959 57.7672 11.2134 57.3179C10.7405 56.8591 10.369 56.319 10.0988 55.6977C9.82855 55.0668 9.69345 54.3738 9.69345 53.6187C9.69345 52.8636 9.82855 52.1753 10.0988 51.554C10.369 50.9231 10.7405 50.3831 11.2134 49.9338C11.6959 49.475 12.2508 49.1213 12.878 48.8728C13.5053 48.6243 14.1808 48.5 14.9046 48.5C15.6284 48.5 16.3039 48.6243 16.9312 48.8728C17.5681 49.1213 18.123 49.475 18.5958 49.9338C19.0687 50.3831 19.4402 50.9231 19.7104 51.554C19.9806 52.1753 20.1158 52.8636 20.1158 53.6187C20.1158 54.3738 19.9806 55.0668 19.7104 55.6977C19.4402 56.319 19.0639 56.8591 18.5814 57.3179C18.1085 57.7672 17.5584 58.1161 16.9312 58.3646C16.3039 58.6131 15.6284 58.7374 14.9046 58.7374ZM14.9046 56.601C15.4354 56.601 15.8986 56.472 16.2942 56.2139C16.6899 55.9558 16.9987 55.6021 17.2207 55.1529C17.4426 54.7036 17.5536 54.1922 17.5536 53.6187C17.5536 53.0356 17.4426 52.5242 17.2207 52.0845C16.9987 51.6353 16.6899 51.2816 16.2942 51.0235C15.8986 50.7654 15.4354 50.6364 14.9046 50.6364C14.3642 50.6364 13.8961 50.7654 13.5005 51.0235C13.1048 51.2816 12.796 51.6353 12.5741 52.0845C12.3617 52.5242 12.2556 53.0356 12.2556 53.6187C12.2556 54.1922 12.3617 54.7036 12.5741 55.1529C12.796 55.6021 13.1048 55.9558 13.5005 56.2139C13.8961 56.472 14.3642 56.601 14.9046 56.601Z" fill="white"/>
<path d="M21.5545 48.6004H24.0732V54.7944C24.0732 55.1768 24.1504 55.5065 24.3048 55.7838C24.4592 56.0514 24.6763 56.2569 24.9562 56.4003C25.2361 56.5341 25.5642 56.601 25.9405 56.601C26.3265 56.601 26.6643 56.5341 26.9538 56.4003C27.2433 56.2569 27.4653 56.0514 27.6197 55.7838C27.7837 55.5065 27.8658 55.1768 27.8658 54.7944V48.6004H30.3845V54.565C30.3845 55.2628 30.2639 55.8746 30.0226 56.4003C29.7813 56.9165 29.4484 57.3514 29.0238 57.7051C28.6088 58.0492 28.1311 58.3073 27.5907 58.4793C27.0503 58.6514 26.4858 58.7374 25.8971 58.7374C25.1058 58.7374 24.382 58.5845 23.7258 58.2786C23.0696 57.9631 22.5436 57.4995 22.148 56.8878C21.7523 56.2665 21.5545 55.4922 21.5545 54.565V48.6004Z" fill="white"/>
<path d="M38.069 51.8695C38.069 51.5062 37.958 51.2195 37.7361 51.0092C37.5141 50.7989 37.1764 50.6937 36.7228 50.6937H34.7397V53.0595H36.7228C37.022 53.0595 37.268 53.0165 37.461 52.9305C37.6637 52.8349 37.8133 52.6963 37.9098 52.5147C38.0159 52.3331 38.069 52.118 38.069 51.8695ZM36.882 48.6004C37.7216 48.6004 38.4164 48.7533 38.9665 49.0592C39.5262 49.3555 39.9412 49.7522 40.2114 50.2492C40.4912 50.7463 40.6312 51.2864 40.6312 51.8695C40.6312 52.2709 40.554 52.6676 40.3996 53.0595C40.2548 53.4514 40.028 53.8051 39.7192 54.1205C39.4201 54.436 39.034 54.6893 38.5612 54.8805C38.0883 55.0621 37.5286 55.1529 36.882 55.1529H34.7397V58.637H32.2209V48.6004H36.882ZM38.1559 54.2926L40.718 58.637H37.9387L35.5213 54.2926H38.1559Z" fill="white"/>
<path d="M50.3005 51.6257C50.3005 51.2911 50.1944 51.0522 49.982 50.9088C49.7697 50.7654 49.4658 50.6937 49.0701 50.6937H46.8698V52.5577H49.0411C49.4368 52.5577 49.7456 52.486 49.9676 52.3426C50.1895 52.1897 50.3005 51.9507 50.3005 51.6257ZM53.0798 55.8841C53.0798 56.4385 52.9495 56.9212 52.6889 57.3323C52.438 57.7433 52.0617 58.0635 51.5599 58.2929C51.0677 58.5223 50.4597 58.637 49.736 58.637H44.3511V48.6004H49.5767C50.2716 48.6004 50.8602 48.7103 51.3427 48.9301C51.8349 49.15 52.2064 49.4607 52.4573 49.8621C52.7179 50.254 52.8482 50.7176 52.8482 51.2529C52.8482 51.7404 52.7469 52.1467 52.5442 52.4717C52.3415 52.7871 52.0569 53.0261 51.6901 53.1886C51.3331 53.3415 50.9229 53.4323 50.4597 53.461L50.5032 53.5183C51.0532 53.5375 51.5164 53.6426 51.8928 53.8338C52.2788 54.0249 52.5731 54.2926 52.7758 54.6367C52.9785 54.9808 53.0798 55.3966 53.0798 55.8841ZM50.5466 55.5257C50.5466 55.1816 50.4308 54.9282 50.1992 54.7657C49.9676 54.5937 49.6491 54.5077 49.2438 54.5077H46.8698V56.5437H49.2727C49.6781 56.5437 49.9917 56.4576 50.2136 56.2856C50.4356 56.1135 50.5466 55.8602 50.5466 55.5257ZM49.7649 53.0882H50.8361V53.8768H49.7649V53.0882Z" fill="white"/>
<path d="M54.648 48.6004H57.1667V54.7944C57.1667 55.1768 57.2439 55.5065 57.3983 55.7838C57.5527 56.0514 57.7699 56.2569 58.0497 56.4003C58.3296 56.5341 58.6577 56.601 59.034 56.601C59.4201 56.601 59.7578 56.5341 60.0473 56.4003C60.3368 56.2569 60.5588 56.0514 60.7132 55.7838C60.8772 55.5065 60.9593 55.1768 60.9593 54.7944V48.6004H63.478V54.565C63.478 55.2628 63.3574 55.8746 63.1161 56.4003C62.8749 56.9165 62.5419 57.3514 62.1173 57.7051C61.7024 58.0492 61.2247 58.3073 60.6842 58.4793C60.1438 58.6514 59.5793 58.7374 58.9906 58.7374C58.1993 58.7374 57.4755 58.5845 56.8193 58.2786C56.1631 57.9631 55.6371 57.4995 55.2415 56.8878C54.8458 56.2665 54.648 55.4922 54.648 54.565V48.6004Z" fill="white"/>
<path d="M67.2831 55.7264C67.3314 55.9845 67.4423 56.19 67.6161 56.3429C67.7898 56.4863 67.9876 56.5915 68.2095 56.6584C68.4315 56.7157 68.639 56.7444 68.832 56.7444C69.218 56.7444 69.5461 56.6488 69.8163 56.4576C70.0865 56.2665 70.2216 56.0227 70.2216 55.7264C70.2216 55.4683 70.1251 55.2628 69.9321 55.1099C69.7488 54.9569 69.5027 54.8279 69.1939 54.7227C68.8851 54.6176 68.5425 54.5172 68.1661 54.4216C67.7994 54.326 67.4327 54.2113 67.066 54.0775C66.6993 53.9437 66.3615 53.7716 66.0527 53.5613C65.7535 53.3415 65.5123 53.0643 65.3289 52.7297C65.1552 52.3856 65.0732 51.9555 65.0829 51.4393C65.0925 50.7989 65.2566 50.2636 65.575 49.8334C65.9031 49.3937 66.347 49.064 66.9068 48.8441C67.4665 48.6147 68.1034 48.5 68.8175 48.5C69.4834 48.5 70.0721 48.5956 70.5835 48.7868C71.095 48.9684 71.5196 49.236 71.8574 49.5897C72.1951 49.9434 72.4267 50.3735 72.5522 50.8801L70.2361 51.2816C70.2072 51.1 70.1203 50.9518 69.9755 50.8371C69.8404 50.7224 69.6764 50.6364 69.4834 50.579C69.3 50.5217 69.1167 50.493 68.9333 50.493C68.7017 50.493 68.4894 50.5312 68.2964 50.6077C68.1034 50.6842 67.9442 50.7941 67.8187 50.9375C67.7029 51.0809 67.645 51.2481 67.645 51.4393C67.645 51.6783 67.7367 51.879 67.92 52.0415C68.1034 52.1944 68.3495 52.3283 68.6583 52.443C68.9671 52.5481 69.3048 52.658 69.6716 52.7728C70.0383 52.8779 70.4002 53.0069 70.7572 53.1599C71.1239 53.3033 71.4617 53.4849 71.7705 53.7047C72.0793 53.915 72.3254 54.1874 72.5087 54.522C72.6921 54.847 72.7838 55.2532 72.7838 55.7407C72.7838 56.3047 72.6342 56.8161 72.335 57.2749C72.0455 57.7242 71.6209 58.0826 71.0612 58.3503C70.5111 58.6084 69.8356 58.7374 69.0346 58.7374C68.3784 58.7374 67.7705 58.6418 67.2107 58.4506C66.6607 58.2595 66.1878 57.9775 65.7921 57.6047C65.4061 57.2223 65.1408 56.7492 64.996 56.1852L67.2831 55.7264Z" fill="white"/>
<path d="M74.3401 48.6004H76.8588V58.637H74.3401V48.6004Z" fill="white"/>
<path d="M87.5732 48.6004V58.637H85.04L81.262 52.5577V58.637H78.7432V48.6004H81.2764L85.0545 54.7227V48.6004H87.5732Z" fill="white"/>
<path d="M97.0507 50.6937H91.9698V52.572H95.5742V54.522H91.9698V56.5437H97.0507V58.637H89.4511V48.6004H97.0507V50.6937Z" fill="white"/>
<path d="M100.615 55.7264C100.663 55.9845 100.774 56.19 100.948 56.3429C101.122 56.4863 101.32 56.5915 101.541 56.6584C101.763 56.7157 101.971 56.7444 102.164 56.7444C102.55 56.7444 102.878 56.6488 103.148 56.4576C103.418 56.2665 103.554 56.0227 103.554 55.7264C103.554 55.4683 103.457 55.2628 103.264 55.1099C103.081 54.9569 102.835 54.8279 102.526 54.7227C102.217 54.6176 101.874 54.5172 101.498 54.4216C101.131 54.326 100.765 54.2113 100.398 54.0775C100.031 53.9437 99.6934 53.7716 99.3846 53.5613C99.0855 53.3415 98.8442 53.0643 98.6609 52.7297C98.4872 52.3856 98.4051 51.9555 98.4148 51.4393C98.4244 50.7989 98.5885 50.2636 98.9069 49.8334C99.2351 49.3937 99.679 49.064 100.239 48.8441C100.798 48.6147 101.435 48.5 102.149 48.5C102.815 48.5 103.404 48.5956 103.915 48.7868C104.427 48.9684 104.852 49.236 105.189 49.5897C105.527 49.9434 105.759 50.3735 105.884 50.8801L103.568 51.2816C103.539 51.1 103.452 50.9518 103.307 50.8371C103.172 50.7224 103.008 50.6364 102.815 50.579C102.632 50.5217 102.449 50.493 102.265 50.493C102.034 50.493 101.821 50.5312 101.628 50.6077C101.435 50.6842 101.276 50.7941 101.151 50.9375C101.035 51.0809 100.977 51.2481 100.977 51.4393C100.977 51.6783 101.069 51.879 101.252 52.0415C101.435 52.1944 101.681 52.3283 101.99 52.443C102.299 52.5481 102.637 52.658 103.003 52.7728C103.37 52.8779 103.732 53.0069 104.089 53.1599C104.456 53.3033 104.794 53.4849 105.102 53.7047C105.411 53.915 105.657 54.1874 105.841 54.522C106.024 54.847 106.116 55.2532 106.116 55.7407C106.116 56.3047 105.966 56.8161 105.667 57.2749C105.377 57.7242 104.953 58.0826 104.393 58.3503C103.843 58.6084 103.168 58.7374 102.367 58.7374C101.71 58.7374 101.102 58.6418 100.543 58.4506C99.9926 58.2595 99.5197 57.9775 99.1241 57.6047C98.7381 57.2223 98.4727 56.7492 98.3279 56.1852L100.615 55.7264Z" fill="white"/>
<path d="M109.499 55.7264C109.548 55.9845 109.659 56.19 109.832 56.3429C110.006 56.4863 110.204 56.5915 110.426 56.6584C110.648 56.7157 110.855 56.7444 111.048 56.7444C111.434 56.7444 111.762 56.6488 112.033 56.4576C112.303 56.2665 112.438 56.0227 112.438 55.7264C112.438 55.4683 112.341 55.2628 112.148 55.1099C111.965 54.9569 111.719 54.8279 111.41 54.7227C111.101 54.6176 110.759 54.5172 110.382 54.4216C110.016 54.326 109.649 54.2113 109.282 54.0775C108.915 53.9437 108.578 53.7716 108.269 53.5613C107.97 53.3415 107.729 53.0643 107.545 52.7297C107.371 52.3856 107.289 51.9555 107.299 51.4393C107.309 50.7989 107.473 50.2636 107.791 49.8334C108.119 49.3937 108.563 49.064 109.123 48.8441C109.683 48.6147 110.32 48.5 111.034 48.5C111.7 48.5 112.288 48.5956 112.8 48.7868C113.311 48.9684 113.736 49.236 114.074 49.5897C114.411 49.9434 114.643 50.3735 114.768 50.8801L112.452 51.2816C112.423 51.1 112.337 50.9518 112.192 50.8371C112.057 50.7224 111.893 50.6364 111.7 50.579C111.516 50.5217 111.333 50.493 111.15 50.493C110.918 50.493 110.706 50.5312 110.513 50.6077C110.32 50.6842 110.16 50.7941 110.035 50.9375C109.919 51.0809 109.861 51.2481 109.861 51.4393C109.861 51.6783 109.953 51.879 110.136 52.0415C110.32 52.1944 110.566 52.3283 110.874 52.443C111.183 52.5481 111.521 52.658 111.888 52.7728C112.254 52.8779 112.616 53.0069 112.973 53.1599C113.34 53.3033 113.678 53.4849 113.987 53.7047C114.296 53.915 114.542 54.1874 114.725 54.522C114.908 54.847 115 55.2532 115 55.7407C115 56.3047 114.85 56.8161 114.551 57.2749C114.262 57.7242 113.837 58.0826 113.277 58.3503C112.727 58.6084 112.052 58.7374 111.251 58.7374C110.595 58.7374 109.987 58.6418 109.427 58.4506C108.877 58.2595 108.404 57.9775 108.008 57.6047C107.622 57.2223 107.357 56.7492 107.212 56.1852L109.499 55.7264Z" fill="white"/>
<defs>
<clipPath id="clip0_5324_3699">
<rect width="73" height="27" fill="white" transform="translate(21 13.5)"/>
</clipPath>
</defs>
</svg>
