<svg width="150" height="40" viewBox="0 0 150 40" fill="none" xmlns="http://www.w3.org/2000/svg">
<g clip-path="url(#clip0_5324_1862)">
<path d="M20.7826 3C19.3377 3 17.9519 3.56469 16.9302 4.56985L13.5957 7.85025C12.574 8.85541 12 10.2187 12 11.6402C12 14.6004 14.4392 17 17.4482 17C18.8931 17 20.2788 16.4353 21.3006 15.4301L23.607 13.1611C23.607 13.161 23.6071 13.1611 23.607 13.1611L30.3273 6.54975C30.8153 6.06969 31.4771 5.8 32.1672 5.8C33.3226 5.8 34.3021 6.54079 34.6417 7.5659L36.7626 5.47938C35.795 3.98856 34.0985 3 32.1672 3C30.7223 3 29.3365 3.56469 28.3148 4.56985L19.2881 13.4503C18.8001 13.9303 18.1383 14.2 17.4482 14.2C16.0111 14.2 14.8462 13.054 14.8462 11.6402C14.8462 10.9613 15.1203 10.3102 15.6083 9.83013L18.9427 6.54975C19.4307 6.06969 20.0925 5.8 20.7826 5.8C21.938 5.8 22.9175 6.54082 23.2571 7.56596L25.378 5.47943C24.4105 3.98859 22.7139 3 20.7826 3Z" fill="#A6AFFF"/>
<path d="M30.6733 13.4503C30.1854 13.9303 29.5235 14.2 28.8334 14.2C27.6782 14.2 26.6988 13.4594 26.3591 12.4345L24.2383 14.5209C25.2059 16.0116 26.9023 17 28.8334 17C30.2784 17 31.6641 16.4353 32.6859 15.4301L41.7126 6.54975C42.2006 6.06969 42.8624 5.8 43.5525 5.8C44.9896 5.8 46.1545 6.94606 46.1545 8.35981C46.1545 9.03871 45.8804 9.68981 45.3924 10.1699L42.058 13.4503C41.57 13.9303 40.9082 14.2 40.2181 14.2C39.0628 14.2 38.0833 13.4593 37.7437 12.4342L35.6228 14.5207C36.5904 16.0115 38.2868 17 40.2181 17C41.663 17 43.0487 16.4353 44.0705 15.4301L47.4049 12.1497C48.4266 11.1446 49.0007 9.78132 49.0007 8.35981C49.0007 5.39967 46.5615 3 43.5525 3C42.1076 3 40.7218 3.56469 39.7001 4.56985L30.6733 13.4503Z" fill="#A6AFFF"/>
</g>
<path d="M5.34503 29.023H7.5995L4.82389 34.326V36.921H2.85265V34.326L0.0657132 29.023H2.32018L3.83827 32.2838L5.34503 29.023Z" fill="white"/>
<path d="M11.7306 37C11.1642 37 10.6355 36.9022 10.1445 36.7066C9.65362 36.5111 9.21934 36.2365 8.84171 35.883C8.47163 35.5219 8.18085 35.097 7.96937 34.608C7.7579 34.1116 7.65216 33.5663 7.65216 32.972C7.65216 32.3778 7.7579 31.8362 7.96937 31.3473C8.18085 30.8509 8.47163 30.4259 8.84171 30.0723C9.21934 29.7113 9.65362 29.433 10.1445 29.2374C10.6355 29.0418 11.1642 28.9441 11.7306 28.9441C12.2971 28.9441 12.8257 29.0418 13.3167 29.2374C13.8151 29.433 14.2494 29.7113 14.6195 30.0723C14.9896 30.4259 15.2804 30.8509 15.4918 31.3473C15.7033 31.8362 15.809 32.3778 15.809 32.972C15.809 33.5663 15.7033 34.1116 15.4918 34.608C15.2804 35.097 14.9858 35.5219 14.6082 35.883C14.2381 36.2365 13.8076 36.5111 13.3167 36.7066C12.8257 36.9022 12.2971 37 11.7306 37ZM11.7306 35.3189C12.146 35.3189 12.5085 35.2173 12.8182 35.0142C13.1278 34.8111 13.3695 34.5328 13.5432 34.1793C13.717 33.8258 13.8038 33.4233 13.8038 32.972C13.8038 32.5132 13.717 32.1108 13.5432 31.7648C13.3695 31.4112 13.1278 31.1329 12.8182 30.9298C12.5085 30.7267 12.146 30.6252 11.7306 30.6252C11.3077 30.6252 10.9413 30.7267 10.6317 30.9298C10.322 31.1329 10.0803 31.4112 9.90663 31.7648C9.74047 32.1108 9.6574 32.5132 9.6574 32.972C9.6574 33.4233 9.74047 33.8258 9.90663 34.1793C10.0803 34.5328 10.322 34.8111 10.6317 35.0142C10.9413 35.2173 11.3077 35.3189 11.7306 35.3189Z" fill="white"/>
<path d="M16.935 29.023H18.9063V33.8972C18.9063 34.1981 18.9667 34.4576 19.0876 34.6757C19.2084 34.8863 19.3783 35.0481 19.5974 35.1609C19.8164 35.2662 20.0732 35.3189 20.3677 35.3189C20.6698 35.3189 20.9342 35.2662 21.1608 35.1609C21.3873 35.0481 21.5611 34.8863 21.6819 34.6757C21.8103 34.4576 21.8745 34.1981 21.8745 33.8972V29.023H23.8457V33.7167C23.8457 34.2658 23.7513 34.7472 23.5625 35.1609C23.3737 35.5671 23.1131 35.9093 22.7808 36.1876C22.456 36.4584 22.0822 36.6615 21.6592 36.7969C21.2363 36.9323 20.7945 37 20.3337 37C19.7144 37 19.148 36.8796 18.6344 36.6389C18.1208 36.3907 17.7092 36.0259 17.3995 35.5445C17.0899 35.0556 16.935 34.4463 16.935 33.7167V29.023Z" fill="white"/>
<path d="M29.8599 31.5955C29.8599 31.3097 29.7731 31.084 29.5994 30.9185C29.4257 30.7531 29.1613 30.6703 28.8063 30.6703H27.2543V32.532H28.8063C29.0405 32.532 29.2331 32.4981 29.3841 32.4304C29.5427 32.3552 29.6598 32.2462 29.7353 32.1032C29.8184 31.9603 29.8599 31.7911 29.8599 31.5955ZM28.931 29.023C29.588 29.023 30.1318 29.1434 30.5623 29.3841C31.0004 29.6173 31.3251 29.9294 31.5366 30.3206C31.7556 30.7117 31.8652 31.1367 31.8652 31.5955C31.8652 31.9114 31.8047 32.2236 31.6839 32.532C31.5706 32.8404 31.3931 33.1187 31.1514 33.3669C30.9173 33.6151 30.6152 33.8145 30.2451 33.9649C29.875 34.1078 29.437 34.1793 28.931 34.1793H27.2543V36.921H25.283V29.023H28.931ZM29.9279 33.5023L31.9331 36.921H29.758L27.866 33.5023H29.9279Z" fill="white"/>
<path d="M38.3169 36.921H35.8925L33.8646 29.023H36.0171L37.1274 34.608L38.4868 29.023H40.6847L42.0102 34.5968L43.1317 29.023H45.2729L43.245 36.921H40.8319L39.5744 31.8099L38.3169 36.921Z" fill="white"/>
<path d="M44.7643 36.921L47.6645 29.023H50.78L53.6575 36.921H51.6296L51.0632 35.3414H47.3586L46.8035 36.921H44.7643ZM49.3978 30.6703H49.0013L47.9364 33.6941H50.4627L49.3978 30.6703Z" fill="white"/>
<path d="M58.1727 29.023H60.4271L57.6515 34.326V36.921H55.6803V34.326L52.8933 29.023H55.1478L56.6659 32.2838L58.1727 29.023Z" fill="white"/>
<path d="M3.57807 21.0535H5.10605L3.22487 24.6476V26.4064H1.88885V24.6476L0 21.0535H1.52798L2.55686 23.2635L3.57807 21.0535Z" fill="white"/>
<path d="M7.90592 26.4599C7.522 26.4599 7.16368 26.3937 6.83096 26.2611C6.49823 26.1286 6.2039 25.9425 5.94796 25.7029C5.69714 25.4582 5.50006 25.1702 5.35673 24.8388C5.2134 24.5023 5.14174 24.1327 5.14174 23.73C5.14174 23.3272 5.2134 22.9602 5.35673 22.6288C5.50006 22.2923 5.69714 22.0043 5.94796 21.7647C6.2039 21.52 6.49823 21.3314 6.83096 21.1988C7.16368 21.0663 7.522 21 7.90592 21C8.28983 21 8.64815 21.0663 8.98088 21.1988C9.31872 21.3314 9.61305 21.52 9.86388 21.7647C10.1147 22.0043 10.3118 22.2923 10.4551 22.6288C10.5984 22.9602 10.6701 23.3272 10.6701 23.73C10.6701 24.1327 10.5984 24.5023 10.4551 24.8388C10.3118 25.1702 10.1121 25.4582 9.8562 25.7029C9.60538 25.9425 9.3136 26.1286 8.98088 26.2611C8.64815 26.3937 8.28983 26.4599 7.90592 26.4599ZM7.90592 25.3205C8.18745 25.3205 8.43316 25.2517 8.64303 25.1141C8.8529 24.9764 9.01671 24.7878 9.13444 24.5482C9.25217 24.3086 9.31104 24.0359 9.31104 23.73C9.31104 23.419 9.25217 23.1463 9.13444 22.9117C9.01671 22.6721 8.8529 22.4835 8.64303 22.3459C8.43316 22.2082 8.18745 22.1394 7.90592 22.1394C7.61926 22.1394 7.371 22.2082 7.16113 22.3459C6.95125 22.4835 6.78745 22.6721 6.66972 22.9117C6.5571 23.1463 6.50079 23.419 6.50079 23.73C6.50079 24.0359 6.5571 24.3086 6.66972 24.5482C6.78745 24.7878 6.95125 24.9764 7.16113 25.1141C7.371 25.2517 7.61926 25.3205 7.90592 25.3205Z" fill="white"/>
<path d="M11.4332 21.0535H12.7693V24.357C12.7693 24.5609 12.8102 24.7368 12.8921 24.8847C12.974 25.0274 13.0892 25.137 13.2376 25.2135C13.3861 25.2849 13.5601 25.3205 13.7598 25.3205C13.9645 25.3205 14.1437 25.2849 14.2972 25.2135C14.4508 25.137 14.5685 25.0274 14.6504 24.8847C14.7375 24.7368 14.781 24.5609 14.781 24.357V21.0535H16.117V24.2347C16.117 24.6068 16.053 24.9331 15.925 25.2135C15.7971 25.4888 15.6205 25.7207 15.3952 25.9094C15.1751 26.0929 14.9217 26.2305 14.6351 26.3223C14.3484 26.4141 14.049 26.4599 13.7367 26.4599C13.317 26.4599 12.9331 26.3784 12.585 26.2152C12.2369 26.047 11.9579 25.7998 11.7481 25.4735C11.5382 25.1421 11.4332 24.7292 11.4332 24.2347V21.0535Z" fill="white"/>
<path d="M20.1931 22.797C20.1931 22.6033 20.1343 22.4504 20.0165 22.3382C19.8988 22.2261 19.7196 22.17 19.479 22.17H18.4271V23.4317H19.479C19.6377 23.4317 19.7683 23.4088 19.8706 23.3629C19.9781 23.3119 20.0575 23.238 20.1087 23.1412C20.165 23.0443 20.1931 22.9296 20.1931 22.797ZM19.5635 21.0535C20.0088 21.0535 20.3774 21.1351 20.6692 21.2982C20.9661 21.4563 21.1862 21.6678 21.3295 21.9329C21.478 22.198 21.5522 22.4861 21.5522 22.797C21.5522 23.0112 21.5112 23.2227 21.4293 23.4317C21.3525 23.6408 21.2323 23.8294 21.0685 23.9976C20.9098 24.1659 20.705 24.3009 20.4542 24.4029C20.2034 24.4998 19.9065 24.5482 19.5635 24.5482H18.4271V26.4064H17.0911V21.0535H19.5635ZM20.2392 24.0894L21.5983 26.4064H20.124L18.8418 24.0894H20.2392Z" fill="white"/>
<path d="M26.6811 22.667C26.6811 22.4886 26.6248 22.3612 26.5122 22.2847C26.3996 22.2082 26.2384 22.17 26.0285 22.17H24.8614V23.1641H26.0131C26.223 23.1641 26.3868 23.1259 26.5045 23.0494C26.6223 22.9678 26.6811 22.8404 26.6811 22.667ZM28.1554 24.9382C28.1554 25.2339 28.0863 25.4913 27.9481 25.7105C27.815 25.9298 27.6153 26.1005 27.3491 26.2229C27.0881 26.3452 26.7656 26.4064 26.3817 26.4064H23.5254V21.0535H26.2972C26.6658 21.0535 26.978 21.1122 27.234 21.2294C27.495 21.3467 27.6921 21.5123 27.8252 21.7265C27.9634 21.9355 28.0325 22.1827 28.0325 22.4682C28.0325 22.7282 27.9788 22.9449 27.8713 23.1182C27.7638 23.2864 27.6128 23.4139 27.4183 23.5006C27.2289 23.5821 27.0113 23.6306 26.7656 23.6459L26.7886 23.6764C27.0804 23.6866 27.3261 23.7427 27.5257 23.8447C27.7305 23.9466 27.8866 24.0894 27.9941 24.2729C28.1016 24.4564 28.1554 24.6782 28.1554 24.9382ZM26.8117 24.747C26.8117 24.5635 26.7502 24.4284 26.6274 24.3417C26.5045 24.25 26.3356 24.2041 26.1206 24.2041H24.8614V25.29H26.136C26.351 25.29 26.5173 25.2441 26.6351 25.1523C26.7528 25.0605 26.8117 24.9255 26.8117 24.747ZM26.397 23.447H26.9652V23.8676H26.397V23.447Z" fill="white"/>
<path d="M28.9872 21.0535H30.3232V24.357C30.3232 24.5609 30.3642 24.7368 30.4461 24.8847C30.528 25.0274 30.6431 25.137 30.7916 25.2135C30.94 25.2849 31.1141 25.3205 31.3137 25.3205C31.5185 25.3205 31.6976 25.2849 31.8512 25.2135C32.0048 25.137 32.1225 25.0274 32.2044 24.8847C32.2914 24.7368 32.3349 24.5609 32.3349 24.357V21.0535H33.6709V24.2347C33.6709 24.6068 33.607 24.9331 33.479 25.2135C33.351 25.4888 33.1744 25.7207 32.9492 25.9094C32.7291 26.0929 32.4757 26.2305 32.189 26.3223C31.9024 26.4141 31.6029 26.4599 31.2907 26.4599C30.8709 26.4599 30.487 26.3784 30.1389 26.2152C29.7909 26.047 29.5119 25.7998 29.302 25.4735C29.0921 25.1421 28.9872 24.7292 28.9872 24.2347V21.0535Z" fill="white"/>
<path d="M35.6893 24.8541C35.7149 24.9917 35.7738 25.1013 35.8659 25.1829C35.958 25.2594 36.063 25.3154 36.1807 25.3511C36.2985 25.3817 36.4085 25.397 36.5109 25.397C36.7156 25.397 36.8897 25.346 37.033 25.2441C37.1763 25.1421 37.248 25.0121 37.248 24.8541C37.248 24.7164 37.1968 24.6068 37.0944 24.5253C36.9972 24.4437 36.8666 24.3749 36.7028 24.3188C36.539 24.2627 36.3573 24.2092 36.1577 24.1582C35.9632 24.1072 35.7687 24.046 35.5741 23.9747C35.3796 23.9033 35.2005 23.8115 35.0367 23.6994C34.878 23.5821 34.75 23.4343 34.6527 23.2559C34.5606 23.0723 34.5171 22.8429 34.5222 22.5676C34.5273 22.2261 34.6143 21.9406 34.7833 21.7112C34.9573 21.4767 35.1928 21.3008 35.4897 21.1835C35.7866 21.0612 36.1244 21 36.5032 21C36.8564 21 37.1687 21.051 37.44 21.1529C37.7113 21.2498 37.9365 21.3925 38.1156 21.5812C38.2948 21.7698 38.4176 21.9992 38.4842 22.2694L37.2557 22.4835C37.2403 22.3867 37.1942 22.3076 37.1175 22.2465C37.0458 22.1853 36.9588 22.1394 36.8564 22.1088C36.7591 22.0782 36.6619 22.0629 36.5646 22.0629C36.4418 22.0629 36.3292 22.0833 36.2268 22.1241C36.1244 22.1649 36.0399 22.2235 35.9734 22.3C35.912 22.3765 35.8813 22.4657 35.8813 22.5676C35.8813 22.6951 35.9299 22.8021 36.0271 22.8888C36.1244 22.9704 36.2549 23.0417 36.4187 23.1029C36.5825 23.159 36.7617 23.2176 36.9562 23.2788C37.1507 23.3349 37.3427 23.4037 37.5321 23.4853C37.7266 23.5617 37.9058 23.6586 38.0696 23.7759C38.2334 23.888 38.3639 24.0333 38.4612 24.2117C38.5584 24.3851 38.607 24.6017 38.607 24.8617C38.607 25.1625 38.5277 25.4353 38.369 25.68C38.2155 25.9196 37.9902 26.1107 37.6933 26.2535C37.4016 26.3911 37.0432 26.4599 36.6184 26.4599C36.2703 26.4599 35.9478 26.409 35.6509 26.307C35.3591 26.205 35.1083 26.0547 34.8984 25.8558C34.6937 25.6519 34.5529 25.3996 34.4761 25.0988L35.6893 24.8541Z" fill="white"/>
<path d="M39.4326 21.0535H40.7686V26.4064H39.4326V21.0535Z" fill="white"/>
<path d="M46.4519 21.0535V26.4064H45.1082L43.1042 23.1641V26.4064H41.7682V21.0535H43.1119L45.1159 24.3188V21.0535H46.4519Z" fill="white"/>
<path d="M51.4791 22.17H48.784V23.1717H50.6959V24.2117H48.784V25.29H51.4791V26.4064H47.448V21.0535H51.4791V22.17Z" fill="white"/>
<path d="M53.3697 24.8541C53.3953 24.9917 53.4542 25.1013 53.5463 25.1829C53.6385 25.2594 53.7434 25.3154 53.8611 25.3511C53.9789 25.3817 54.0889 25.397 54.1913 25.397C54.396 25.397 54.5701 25.346 54.7134 25.2441C54.8567 25.1421 54.9284 25.0121 54.9284 24.8541C54.9284 24.7164 54.8772 24.6068 54.7748 24.5253C54.6776 24.4437 54.5471 24.3749 54.3833 24.3188C54.2194 24.2627 54.0377 24.2092 53.8381 24.1582C53.6436 24.1072 53.4491 24.046 53.2545 23.9747C53.06 23.9033 52.8809 23.8115 52.7171 23.6994C52.5584 23.5821 52.4304 23.4343 52.3332 23.2559C52.241 23.0723 52.1975 22.8429 52.2026 22.5676C52.2077 22.2261 52.2948 21.9406 52.4637 21.7112C52.6377 21.4767 52.8732 21.3008 53.1701 21.1835C53.467 21.0612 53.8048 21 54.1836 21C54.5368 21 54.8491 21.051 55.1204 21.1529C55.3917 21.2498 55.6169 21.3925 55.7961 21.5812C55.9752 21.7698 56.0981 21.9992 56.1646 22.2694L54.9361 22.4835C54.9207 22.3867 54.8747 22.3076 54.7979 22.2465C54.7262 22.1853 54.6392 22.1394 54.5368 22.1088C54.4396 22.0782 54.3423 22.0629 54.245 22.0629C54.1222 22.0629 54.0096 22.0833 53.9072 22.1241C53.8048 22.1649 53.7204 22.2235 53.6538 22.3C53.5924 22.3765 53.5617 22.4657 53.5617 22.5676C53.5617 22.6951 53.6103 22.8021 53.7076 22.8888C53.8048 22.9704 53.9353 23.0417 54.0992 23.1029C54.263 23.159 54.4421 23.2176 54.6366 23.2788C54.8312 23.3349 55.0231 23.4037 55.2125 23.4853C55.407 23.5617 55.5862 23.6586 55.75 23.7759C55.9138 23.888 56.0443 24.0333 56.1416 24.2117C56.2388 24.3851 56.2875 24.6017 56.2875 24.8617C56.2875 25.1625 56.2081 25.4353 56.0494 25.68C55.8959 25.9196 55.6706 26.1107 55.3737 26.2535C55.082 26.3911 54.7237 26.4599 54.2988 26.4599C53.9507 26.4599 53.6282 26.409 53.3313 26.307C53.0396 26.205 52.7887 26.0547 52.5789 25.8558C52.3741 25.6519 52.2333 25.3996 52.1566 25.0988L53.3697 24.8541Z" fill="white"/>
<path d="M58.0823 24.8541C58.1078 24.9917 58.1667 25.1013 58.2589 25.1829C58.351 25.2594 58.4559 25.3154 58.5737 25.3511C58.6914 25.3817 58.8015 25.397 58.9038 25.397C59.1086 25.397 59.2826 25.346 59.426 25.2441C59.5693 25.1421 59.6409 25.0121 59.6409 24.8541C59.6409 24.7164 59.5898 24.6068 59.4874 24.5253C59.3901 24.4437 59.2596 24.3749 59.0958 24.3188C58.932 24.2627 58.7503 24.2092 58.5506 24.1582C58.3561 24.1072 58.1616 24.046 57.9671 23.9747C57.7726 23.9033 57.5934 23.8115 57.4296 23.6994C57.2709 23.5821 57.1429 23.4343 57.0457 23.2559C56.9535 23.0723 56.91 22.8429 56.9152 22.5676C56.9203 22.2261 57.0073 21.9406 57.1762 21.7112C57.3503 21.4767 57.5857 21.3008 57.8826 21.1835C58.1795 21.0612 58.5174 21 58.8962 21C59.2494 21 59.5616 21.051 59.8329 21.1529C60.1042 21.2498 60.3294 21.3925 60.5086 21.5812C60.6877 21.7698 60.8106 21.9992 60.8771 22.2694L59.6486 22.4835C59.6333 22.3867 59.5872 22.3076 59.5104 22.2465C59.4388 22.1853 59.3517 22.1394 59.2494 22.1088C59.1521 22.0782 59.0548 22.0629 58.9576 22.0629C58.8347 22.0629 58.7221 22.0833 58.6197 22.1241C58.5174 22.1649 58.4329 22.2235 58.3664 22.3C58.3049 22.3765 58.2742 22.4657 58.2742 22.5676C58.2742 22.6951 58.3228 22.8021 58.4201 22.8888C58.5174 22.9704 58.6479 23.0417 58.8117 23.1029C58.9755 23.159 59.1547 23.2176 59.3492 23.2788C59.5437 23.3349 59.7356 23.4037 59.925 23.4853C60.1196 23.5617 60.2987 23.6586 60.4625 23.7759C60.6263 23.888 60.7569 24.0333 60.8541 24.2117C60.9514 24.3851 61 24.6017 61 24.8617C61 25.1625 60.9207 25.4353 60.762 25.68C60.6084 25.9196 60.3832 26.1107 60.0863 26.2535C59.7945 26.3911 59.4362 26.4599 59.0113 26.4599C58.6632 26.4599 58.3408 26.409 58.0439 26.307C57.7521 26.205 57.5013 26.0547 57.2914 25.8558C57.0866 25.6519 56.9459 25.3996 56.8691 25.0988L58.0823 24.8541Z" fill="white"/>
<defs>
<clipPath id="clip0_5324_1862">
<rect width="37" height="14" fill="white" transform="translate(12 3)"/>
</clipPath>
</defs>
</svg>
