<svg width="206" height="93" viewBox="0 0 206 93" fill="none" xmlns="http://www.w3.org/2000/svg">
<g clip-path="url(#clip0_5324_4380)">
<path d="M83.8279 14C80.977 14 78.243 15.089 76.2272 17.0276L69.6483 23.3541C67.6325 25.2926 66.5 27.9217 66.5 30.6632C66.5 36.3721 71.3125 41 77.2491 41C80.0999 41 82.8339 39.9109 84.8498 37.9724L89.4004 33.5963C89.4004 33.5962 89.4005 33.5964 89.4004 33.5963L102.659 20.8459C103.622 19.9201 104.928 19.4 106.289 19.4C108.569 19.4 110.501 20.8287 111.171 22.8057L115.356 18.7817C113.447 15.9065 110.1 14 106.289 14C103.439 14 100.705 15.089 98.6887 17.0276L80.8791 34.1541C79.9164 35.0799 78.6106 35.6 77.2491 35.6C74.4138 35.6 72.1154 33.3898 72.1154 30.6632C72.1154 29.3539 72.6562 28.0982 73.619 27.1724L80.1978 20.8459C81.1606 19.9201 82.4663 19.4 83.8279 19.4C86.1074 19.4 88.0399 20.8287 88.7099 22.8058L92.8945 18.7818C90.9855 15.9066 87.6383 14 83.8279 14Z" fill="#001AFF"/>
<path d="M103.34 34.1541C102.378 35.0799 101.072 35.6 99.7104 35.6C97.4312 35.6 95.4988 34.1717 94.8286 32.195L90.6442 36.2189C92.5533 39.0937 95.9003 41 99.7104 41C102.561 41 105.295 39.9109 107.311 37.9724L125.121 20.8459C126.083 19.9201 127.389 19.4 128.751 19.4C131.586 19.4 133.884 21.6103 133.884 24.3368C133.884 25.6461 133.344 26.9018 132.381 27.8276L125.802 34.1541C124.839 35.0799 123.533 35.6 122.172 35.6C119.893 35.6 117.96 34.1714 117.29 32.1946L113.106 36.2186C115.015 39.0936 118.362 41 122.172 41C125.023 41 127.757 39.9109 129.773 37.9724L136.351 31.6459C138.367 29.7074 139.5 27.0783 139.5 24.3368C139.5 18.6279 134.687 14 128.751 14C125.9 14 123.166 15.089 121.15 17.0276L103.34 34.1541Z" fill="#001AFF"/>
</g>
<path d="M55.5767 64.0432H59.8269L54.5942 73.9862V78.8519H50.8779V73.9862L45.6239 64.0432H49.8741L52.7361 70.1571L55.5767 64.0432Z" fill="black"/>
<path d="M67.6151 79C66.5472 79 65.5505 78.8167 64.625 78.45C63.6994 78.0833 62.8807 77.5685 62.1688 76.9056C61.4711 76.2286 60.9229 75.4318 60.5242 74.5151C60.1255 73.5842 59.9262 72.5617 59.9262 71.4475C59.9262 70.3334 60.1255 69.3179 60.5242 68.4012C60.9229 67.4703 61.4711 66.6735 62.1688 66.0106C62.8807 65.3337 63.6994 64.8118 64.625 64.4451C65.5505 64.0784 66.5472 63.8951 67.6151 63.8951C68.683 63.8951 69.6797 64.0784 70.6052 64.4451C71.5449 64.8118 72.3637 65.3337 73.0613 66.0106C73.759 66.6735 74.3072 67.4703 74.7059 68.4012C75.1046 69.3179 75.3039 70.3334 75.3039 71.4475C75.3039 72.5617 75.1046 73.5842 74.7059 74.5151C74.3072 75.4318 73.7519 76.2286 73.04 76.9056C72.3423 77.5685 71.5307 78.0833 70.6052 78.45C69.6797 78.8167 68.683 79 67.6151 79ZM67.6151 75.8479C68.3982 75.8479 69.0817 75.6575 69.6654 75.2767C70.2492 74.8959 70.7049 74.374 71.0323 73.7112C71.3598 73.0483 71.5236 72.2938 71.5236 71.4475C71.5236 70.5872 71.3598 69.8327 71.0323 69.1839C70.7049 68.5211 70.2492 67.9992 69.6654 67.6184C69.0817 67.2376 68.3982 67.0472 67.6151 67.0472C66.8177 67.0472 66.1271 67.2376 65.5434 67.6184C64.9596 67.9992 64.5039 68.5211 64.1764 69.1839C63.8632 69.8327 63.7066 70.5872 63.7066 71.4475C63.7066 72.2938 63.8632 73.0483 64.1764 73.7112C64.5039 74.374 64.9596 74.8959 65.5434 75.2767C66.1271 75.6575 66.8177 75.8479 67.6151 75.8479Z" fill="black"/>
<path d="M77.4267 64.0432H81.143V73.1823C81.143 73.7464 81.2569 74.233 81.4847 74.642C81.7125 75.0369 82.0329 75.3401 82.4458 75.5517C82.8588 75.7491 83.3429 75.8479 83.8982 75.8479C84.4677 75.8479 84.9661 75.7491 85.3932 75.5517C85.8204 75.3401 86.1479 75.0369 86.3757 74.642C86.6178 74.233 86.7388 73.7464 86.7388 73.1823V64.0432H90.4551V72.8438C90.4551 73.8734 90.2771 74.776 89.9211 75.5517C89.5652 76.3133 89.0739 76.955 88.4474 77.4768C87.8352 77.9845 87.1303 78.3653 86.333 78.6192C85.5356 78.8731 84.7027 79 83.8341 79C82.6665 79 81.5986 78.7743 80.6304 78.323C79.6622 77.8576 78.8862 77.1736 78.3024 76.271C77.7186 75.3542 77.4267 74.2118 77.4267 72.8438V64.0432Z" fill="black"/>
<path d="M101.793 68.8666C101.793 68.3307 101.63 67.9076 101.302 67.5973C100.975 67.287 100.476 67.1319 99.807 67.1319H96.881V70.6225H99.807C100.248 70.6225 100.611 70.559 100.896 70.4321C101.195 70.2911 101.416 70.0866 101.558 69.8186C101.715 69.5506 101.793 69.2333 101.793 68.8666ZM100.042 64.0432C101.281 64.0432 102.306 64.2688 103.118 64.7202C103.943 65.1574 104.556 65.7427 104.954 66.476C105.367 67.2094 105.574 68.0063 105.574 68.8666C105.574 69.4589 105.46 70.0442 105.232 70.6225C105.018 71.2007 104.684 71.7226 104.228 72.188C103.787 72.6534 103.217 73.0271 102.519 73.3092C101.822 73.5772 100.996 73.7112 100.042 73.7112H96.881V78.8519H93.1647V64.0432H100.042ZM101.921 72.4418L105.702 78.8519H101.601L98.0343 72.4418H101.921Z" fill="black"/>
<path d="M117.737 78.8519H113.166L109.343 64.0432H113.401L115.494 74.5151L118.057 64.0432H122.201L124.699 74.4939L126.814 64.0432H130.851L127.027 78.8519H122.478L120.108 69.2685L117.737 78.8519Z" fill="black"/>
<path d="M129.892 78.8519L135.359 64.0432H141.233L146.658 78.8519H142.835L141.767 75.8902H134.783L133.736 78.8519H129.892ZM138.627 67.1319H137.88L135.872 72.8015H140.635L138.627 67.1319Z" fill="black"/>
<path d="M155.17 64.0432H159.42L154.187 73.9862V78.8519H150.471V73.9862L145.217 64.0432H149.467L152.329 70.1571L155.17 64.0432Z" fill="black"/>
<path d="M52.2455 49.1004H55.1262L51.5797 55.8393V59.137H49.061V55.8393L45.5 49.1004H48.3806L50.3203 53.2441L52.2455 49.1004Z" fill="black"/>
<path d="M60.4046 59.2374C59.6808 59.2374 59.0053 59.1131 58.378 58.8646C57.7508 58.6161 57.1959 58.2672 56.7134 57.8179C56.2405 57.3591 55.869 56.819 55.5988 56.1977C55.3285 55.5668 55.1934 54.8738 55.1934 54.1187C55.1934 53.3636 55.3285 52.6753 55.5988 52.054C55.869 51.4231 56.2405 50.8831 56.7134 50.4338C57.1959 49.975 57.7508 49.6213 58.378 49.3728C59.0053 49.1243 59.6808 49 60.4046 49C61.1284 49 61.8039 49.1243 62.4312 49.3728C63.0681 49.6213 63.623 49.975 64.0958 50.4338C64.5687 50.8831 64.9402 51.4231 65.2104 52.054C65.4806 52.6753 65.6158 53.3636 65.6158 54.1187C65.6158 54.8738 65.4806 55.5668 65.2104 56.1977C64.9402 56.819 64.5639 57.3591 64.0814 57.8179C63.6085 58.2672 63.0584 58.6161 62.4312 58.8646C61.8039 59.1131 61.1284 59.2374 60.4046 59.2374ZM60.4046 57.101C60.9354 57.101 61.3986 56.972 61.7942 56.7139C62.1899 56.4558 62.4987 56.1021 62.7207 55.6529C62.9426 55.2036 63.0536 54.6922 63.0536 54.1187C63.0536 53.5356 62.9426 53.0242 62.7207 52.5845C62.4987 52.1353 62.1899 51.7816 61.7942 51.5235C61.3986 51.2654 60.9354 51.1364 60.4046 51.1364C59.8642 51.1364 59.3961 51.2654 59.0005 51.5235C58.6048 51.7816 58.296 52.1353 58.0741 52.5845C57.8617 53.0242 57.7556 53.5356 57.7556 54.1187C57.7556 54.6922 57.8617 55.2036 58.0741 55.6529C58.296 56.1021 58.6048 56.4558 59.0005 56.7139C59.3961 56.972 59.8642 57.101 60.4046 57.101Z" fill="black"/>
<path d="M67.0545 49.1004H69.5732V55.2944C69.5732 55.6768 69.6504 56.0065 69.8048 56.2838C69.9592 56.5514 70.1763 56.7569 70.4562 56.9003C70.7361 57.0341 71.0642 57.101 71.4405 57.101C71.8265 57.101 72.1643 57.0341 72.4538 56.9003C72.7433 56.7569 72.9653 56.5514 73.1197 56.2838C73.2837 56.0065 73.3658 55.6768 73.3658 55.2944V49.1004H75.8845V55.065C75.8845 55.7628 75.7639 56.3746 75.5226 56.9003C75.2813 57.4165 74.9484 57.8514 74.5238 58.2051C74.1088 58.5492 73.6311 58.8073 73.0907 58.9793C72.5503 59.1514 71.9858 59.2374 71.3971 59.2374C70.6058 59.2374 69.882 59.0845 69.2258 58.7786C68.5696 58.4631 68.0436 57.9995 67.648 57.3878C67.2523 56.7665 67.0545 55.9922 67.0545 55.065V49.1004Z" fill="black"/>
<path d="M83.569 52.3695C83.569 52.0062 83.458 51.7195 83.2361 51.5092C83.0141 51.2989 82.6764 51.1937 82.2228 51.1937H80.2397V53.5595H82.2228C82.522 53.5595 82.768 53.5165 82.961 53.4305C83.1637 53.3349 83.3133 53.1963 83.4098 53.0147C83.5159 52.8331 83.569 52.618 83.569 52.3695ZM82.382 49.1004C83.2216 49.1004 83.9164 49.2533 84.4665 49.5592C85.0262 49.8555 85.4412 50.2522 85.7114 50.7492C85.9912 51.2463 86.1312 51.7864 86.1312 52.3695C86.1312 52.7709 86.054 53.1676 85.8996 53.5595C85.7548 53.9514 85.528 54.3051 85.2192 54.6205C84.9201 54.936 84.534 55.1893 84.0612 55.3805C83.5883 55.5621 83.0286 55.6529 82.382 55.6529H80.2397V59.137H77.7209V49.1004H82.382ZM83.6559 54.7926L86.218 59.137H83.4387L81.0213 54.7926H83.6559Z" fill="black"/>
<path d="M95.8005 52.1257C95.8005 51.7911 95.6944 51.5522 95.482 51.4088C95.2697 51.2654 94.9658 51.1937 94.5701 51.1937H92.3698V53.0577H94.5411C94.9368 53.0577 95.2456 52.986 95.4676 52.8426C95.6895 52.6897 95.8005 52.4507 95.8005 52.1257ZM98.5798 56.3841C98.5798 56.9385 98.4495 57.4212 98.1889 57.8323C97.938 58.2433 97.5617 58.5635 97.0599 58.7929C96.5677 59.0223 95.9597 59.137 95.236 59.137H89.8511V49.1004H95.0767C95.7716 49.1004 96.3602 49.2103 96.8427 49.4301C97.3349 49.65 97.7064 49.9607 97.9573 50.3621C98.2179 50.754 98.3482 51.2176 98.3482 51.7529C98.3482 52.2404 98.2469 52.6467 98.0442 52.9717C97.8415 53.2871 97.5569 53.5261 97.1901 53.6886C96.8331 53.8415 96.4229 53.9323 95.9597 53.961L96.0032 54.0183C96.5532 54.0375 97.0164 54.1426 97.3928 54.3338C97.7788 54.5249 98.0731 54.7926 98.2758 55.1367C98.4785 55.4808 98.5798 55.8966 98.5798 56.3841ZM96.0466 56.0257C96.0466 55.6816 95.9308 55.4282 95.6992 55.2657C95.4676 55.0937 95.1491 55.0077 94.7438 55.0077H92.3698V57.0437H94.7727C95.1781 57.0437 95.4917 56.9576 95.7136 56.7856C95.9356 56.6135 96.0466 56.3602 96.0466 56.0257ZM95.2649 53.5882H96.3361V54.3768H95.2649V53.5882Z" fill="black"/>
<path d="M100.148 49.1004H102.667V55.2944C102.667 55.6768 102.744 56.0065 102.898 56.2838C103.053 56.5514 103.27 56.7569 103.55 56.9003C103.83 57.0341 104.158 57.101 104.534 57.101C104.92 57.101 105.258 57.0341 105.547 56.9003C105.837 56.7569 106.059 56.5514 106.213 56.2838C106.377 56.0065 106.459 55.6768 106.459 55.2944V49.1004H108.978V55.065C108.978 55.7628 108.857 56.3746 108.616 56.9003C108.375 57.4165 108.042 57.8514 107.617 58.2051C107.202 58.5492 106.725 58.8073 106.184 58.9793C105.644 59.1514 105.079 59.2374 104.491 59.2374C103.699 59.2374 102.976 59.0845 102.319 58.7786C101.663 58.4631 101.137 57.9995 100.741 57.3878C100.346 56.7665 100.148 55.9922 100.148 55.065V49.1004Z" fill="black"/>
<path d="M112.783 56.2264C112.831 56.4845 112.942 56.69 113.116 56.8429C113.29 56.9863 113.488 57.0915 113.71 57.1584C113.932 57.2157 114.139 57.2444 114.332 57.2444C114.718 57.2444 115.046 57.1488 115.316 56.9576C115.587 56.7665 115.722 56.5227 115.722 56.2264C115.722 55.9683 115.625 55.7628 115.432 55.6099C115.249 55.4569 115.003 55.3279 114.694 55.2227C114.385 55.1176 114.042 55.0172 113.666 54.9216C113.299 54.826 112.933 54.7113 112.566 54.5775C112.199 54.4437 111.862 54.2716 111.553 54.0613C111.254 53.8415 111.012 53.5643 110.829 53.2297C110.655 52.8856 110.573 52.4555 110.583 51.9393C110.593 51.2989 110.757 50.7636 111.075 50.3334C111.403 49.8937 111.847 49.564 112.407 49.3441C112.966 49.1147 113.603 49 114.318 49C114.983 49 115.572 49.0956 116.084 49.2868C116.595 49.4684 117.02 49.736 117.357 50.0897C117.695 50.4434 117.927 50.8735 118.052 51.3801L115.736 51.7816C115.707 51.6 115.62 51.4518 115.476 51.3371C115.34 51.2224 115.176 51.1364 114.983 51.079C114.8 51.0217 114.617 50.993 114.433 50.993C114.202 50.993 113.989 51.0312 113.796 51.1077C113.603 51.1842 113.444 51.2941 113.319 51.4375C113.203 51.5809 113.145 51.7481 113.145 51.9393C113.145 52.1783 113.237 52.379 113.42 52.5415C113.603 52.6944 113.849 52.8283 114.158 52.943C114.467 53.0481 114.805 53.158 115.172 53.2728C115.538 53.3779 115.9 53.5069 116.257 53.6599C116.624 53.8033 116.962 53.9849 117.271 54.2047C117.579 54.415 117.825 54.6874 118.009 55.022C118.192 55.347 118.284 55.7532 118.284 56.2407C118.284 56.8047 118.134 57.3161 117.835 57.7749C117.546 58.2242 117.121 58.5826 116.561 58.8503C116.011 59.1084 115.336 59.2374 114.535 59.2374C113.878 59.2374 113.27 59.1418 112.711 58.9506C112.161 58.7595 111.688 58.4775 111.292 58.1047C110.906 57.7223 110.641 57.2492 110.496 56.6852L112.783 56.2264Z" fill="black"/>
<path d="M119.84 49.1004H122.359V59.137H119.84V49.1004Z" fill="black"/>
<path d="M133.073 49.1004V59.137H130.54L126.762 53.0577V59.137H124.243V49.1004H126.776L130.555 55.2227V49.1004H133.073Z" fill="black"/>
<path d="M142.551 51.1937H137.47V53.072H141.074V55.022H137.47V57.0437H142.551V59.137H134.951V49.1004H142.551V51.1937Z" fill="black"/>
<path d="M146.115 56.2264C146.163 56.4845 146.274 56.69 146.448 56.8429C146.622 56.9863 146.82 57.0915 147.041 57.1584C147.263 57.2157 147.471 57.2444 147.664 57.2444C148.05 57.2444 148.378 57.1488 148.648 56.9576C148.918 56.7665 149.054 56.5227 149.054 56.2264C149.054 55.9683 148.957 55.7628 148.764 55.6099C148.581 55.4569 148.335 55.3279 148.026 55.2227C147.717 55.1176 147.374 55.0172 146.998 54.9216C146.631 54.826 146.265 54.7113 145.898 54.5775C145.531 54.4437 145.193 54.2716 144.885 54.0613C144.585 53.8415 144.344 53.5643 144.161 53.2297C143.987 52.8856 143.905 52.4555 143.915 51.9393C143.924 51.2989 144.088 50.7636 144.407 50.3334C144.735 49.8937 145.179 49.564 145.739 49.3441C146.298 49.1147 146.935 49 147.649 49C148.315 49 148.904 49.0956 149.415 49.2868C149.927 49.4684 150.352 49.736 150.689 50.0897C151.027 50.4434 151.259 50.8735 151.384 51.3801L149.068 51.7816C149.039 51.6 148.952 51.4518 148.807 51.3371C148.672 51.2224 148.508 51.1364 148.315 51.079C148.132 51.0217 147.949 50.993 147.765 50.993C147.534 50.993 147.321 51.0312 147.128 51.1077C146.935 51.1842 146.776 51.2941 146.651 51.4375C146.535 51.5809 146.477 51.7481 146.477 51.9393C146.477 52.1783 146.569 52.379 146.752 52.5415C146.935 52.6944 147.181 52.8283 147.49 52.943C147.799 53.0481 148.137 53.158 148.503 53.2728C148.87 53.3779 149.232 53.5069 149.589 53.6599C149.956 53.8033 150.294 53.9849 150.602 54.2047C150.911 54.415 151.157 54.6874 151.341 55.022C151.524 55.347 151.616 55.7532 151.616 56.2407C151.616 56.8047 151.466 57.3161 151.167 57.7749C150.877 58.2242 150.453 58.5826 149.893 58.8503C149.343 59.1084 148.668 59.2374 147.867 59.2374C147.21 59.2374 146.602 59.1418 146.043 58.9506C145.493 58.7595 145.02 58.4775 144.624 58.1047C144.238 57.7223 143.973 57.2492 143.828 56.6852L146.115 56.2264Z" fill="black"/>
<path d="M154.999 56.2264C155.048 56.4845 155.159 56.69 155.332 56.8429C155.506 56.9863 155.704 57.0915 155.926 57.1584C156.148 57.2157 156.355 57.2444 156.548 57.2444C156.934 57.2444 157.262 57.1488 157.533 56.9576C157.803 56.7665 157.938 56.5227 157.938 56.2264C157.938 55.9683 157.841 55.7628 157.648 55.6099C157.465 55.4569 157.219 55.3279 156.91 55.2227C156.601 55.1176 156.259 55.0172 155.882 54.9216C155.516 54.826 155.149 54.7113 154.782 54.5775C154.415 54.4437 154.078 54.2716 153.769 54.0613C153.47 53.8415 153.229 53.5643 153.045 53.2297C152.871 52.8856 152.789 52.4555 152.799 51.9393C152.809 51.2989 152.973 50.7636 153.291 50.3334C153.619 49.8937 154.063 49.564 154.623 49.3441C155.183 49.1147 155.82 49 156.534 49C157.2 49 157.788 49.0956 158.3 49.2868C158.811 49.4684 159.236 49.736 159.574 50.0897C159.911 50.4434 160.143 50.8735 160.268 51.3801L157.952 51.7816C157.923 51.6 157.837 51.4518 157.692 51.3371C157.557 51.2224 157.393 51.1364 157.2 51.079C157.016 51.0217 156.833 50.993 156.65 50.993C156.418 50.993 156.206 51.0312 156.013 51.1077C155.82 51.1842 155.66 51.2941 155.535 51.4375C155.419 51.5809 155.361 51.7481 155.361 51.9393C155.361 52.1783 155.453 52.379 155.636 52.5415C155.82 52.6944 156.066 52.8283 156.374 52.943C156.683 53.0481 157.021 53.158 157.388 53.2728C157.754 53.3779 158.116 53.5069 158.473 53.6599C158.84 53.8033 159.178 53.9849 159.487 54.2047C159.796 54.415 160.042 54.6874 160.225 55.022C160.408 55.347 160.5 55.7532 160.5 56.2407C160.5 56.8047 160.35 57.3161 160.051 57.7749C159.762 58.2242 159.337 58.5826 158.777 58.8503C158.227 59.1084 157.552 59.2374 156.751 59.2374C156.095 59.2374 155.487 59.1418 154.927 58.9506C154.377 58.7595 153.904 58.4775 153.508 58.1047C153.122 57.7223 152.857 57.2492 152.712 56.6852L154.999 56.2264Z" fill="black"/>
<defs>
<clipPath id="clip0_5324_4380">
<rect width="73" height="27" fill="white" transform="translate(66.5 14)"/>
</clipPath>
</defs>
</svg>
