<svg width="150" height="48" viewBox="0 0 150 48" fill="none" xmlns="http://www.w3.org/2000/svg">
<g clip-path="url(#clip0_5324_1391)">
<path d="M65.7826 7C64.3377 7 62.9519 7.56469 61.9302 8.56985L58.5957 11.8503C57.574 12.8554 57 14.2187 57 15.6402C57 18.6004 59.4392 21 62.4482 21C63.8931 21 65.2788 20.4353 66.3006 19.4301L68.607 17.1611C68.607 17.161 68.6071 17.1611 68.607 17.1611L75.3273 10.5497C75.8153 10.0697 76.4771 9.8 77.1672 9.8C78.3226 9.8 79.3021 10.5408 79.6417 11.5659L81.7626 9.47938C80.795 7.98856 79.0985 7 77.1672 7C75.7223 7 74.3365 7.56469 73.3148 8.56985L64.2881 17.4503C63.8001 17.9303 63.1383 18.2 62.4482 18.2C61.0111 18.2 59.8462 17.054 59.8462 15.6402C59.8462 14.9613 60.1203 14.3102 60.6083 13.8301L63.9427 10.5497C64.4307 10.0697 65.0925 9.8 65.7826 9.8C66.938 9.8 67.9175 10.5408 68.2571 11.566L70.378 9.47943C69.4105 7.98859 67.7139 7 65.7826 7Z" fill="#001AFF"/>
<path d="M75.6726 17.4503C75.1846 17.9303 74.5228 18.2 73.8327 18.2C72.6775 18.2 71.6981 17.4594 71.3584 16.4345L69.2375 18.5209C70.2051 20.0116 71.9016 21 73.8327 21C75.2777 21 76.6634 20.4353 77.6851 19.4301L86.7119 10.5497C87.1999 10.0697 87.8617 9.8 88.5518 9.8C89.9889 9.8 91.1538 10.9461 91.1538 12.3598C91.1538 13.0387 90.8797 13.6898 90.3917 14.1699L87.0572 17.4503C86.5692 17.9303 85.9074 18.2 85.2173 18.2C84.062 18.2 83.0826 17.4593 82.7429 16.4342L80.6221 18.5207C81.5896 20.0115 83.2861 21 85.2173 21C86.6623 21 88.048 20.4353 89.0697 19.4301L92.4042 16.1497C93.4259 15.1446 93.9999 13.7813 93.9999 12.3598C93.9999 9.39967 91.5607 7 88.5518 7C87.1068 7 85.7211 7.56469 84.6994 8.56985L75.6726 17.4503Z" fill="#001AFF"/>
</g>
<path d="M50.345 33.023H52.5995L49.8239 38.326V40.921H47.8526V38.326L45.0657 33.023H47.3202L48.8383 36.2838L50.345 33.023Z" fill="black"/>
<path d="M56.7306 41C56.1642 41 55.6355 40.9022 55.1445 40.7066C54.6536 40.5111 54.2193 40.2365 53.8417 39.883C53.4716 39.5219 53.1808 39.097 52.9694 38.608C52.7579 38.1116 52.6522 37.5663 52.6522 36.972C52.6522 36.3778 52.7579 35.8362 52.9694 35.3473C53.1808 34.8509 53.4716 34.4259 53.8417 34.0723C54.2193 33.7113 54.6536 33.433 55.1445 33.2374C55.6355 33.0418 56.1642 32.9441 56.7306 32.9441C57.2971 32.9441 57.8257 33.0418 58.3167 33.2374C58.8151 33.433 59.2494 33.7113 59.6195 34.0723C59.9896 34.4259 60.2804 34.8509 60.4918 35.3473C60.7033 35.8362 60.809 36.3778 60.809 36.972C60.809 37.5663 60.7033 38.1116 60.4918 38.608C60.2804 39.097 59.9858 39.5219 59.6082 39.883C59.2381 40.2365 58.8076 40.5111 58.3167 40.7066C57.8257 40.9022 57.2971 41 56.7306 41ZM56.7306 39.3189C57.146 39.3189 57.5085 39.2173 57.8182 39.0142C58.1278 38.8111 58.3695 38.5328 58.5432 38.1793C58.717 37.8258 58.8038 37.4233 58.8038 36.972C58.8038 36.5132 58.717 36.1108 58.5432 35.7648C58.3695 35.4112 58.1278 35.1329 57.8182 34.9298C57.5085 34.7267 57.146 34.6252 56.7306 34.6252C56.3077 34.6252 55.9413 34.7267 55.6317 34.9298C55.322 35.1329 55.0803 35.4112 54.9066 35.7648C54.7405 36.1108 54.6574 36.5132 54.6574 36.972C54.6574 37.4233 54.7405 37.8258 54.9066 38.1793C55.0803 38.5328 55.322 38.8111 55.6317 39.0142C55.9413 39.2173 56.3077 39.3189 56.7306 39.3189Z" fill="black"/>
<path d="M61.935 33.023H63.9063V37.8972C63.9063 38.1981 63.9667 38.4576 64.0876 38.6757C64.2084 38.8863 64.3783 39.0481 64.5974 39.1609C64.8164 39.2662 65.0732 39.3189 65.3677 39.3189C65.6698 39.3189 65.9342 39.2662 66.1608 39.1609C66.3873 39.0481 66.5611 38.8863 66.6819 38.6757C66.8103 38.4576 66.8745 38.1981 66.8745 37.8972V33.023H68.8457V37.7167C68.8457 38.2658 68.7513 38.7472 68.5625 39.1609C68.3737 39.5671 68.1131 39.9093 67.7808 40.1876C67.456 40.4584 67.0822 40.6615 66.6592 40.7969C66.2363 40.9323 65.7945 41 65.3337 41C64.7144 41 64.148 40.8796 63.6344 40.6389C63.1208 40.3907 62.7092 40.0259 62.3995 39.5445C62.0899 39.0556 61.935 38.4463 61.935 37.7167V33.023Z" fill="black"/>
<path d="M74.8599 35.5955C74.8599 35.3097 74.7731 35.084 74.5994 34.9185C74.4257 34.7531 74.1613 34.6703 73.8063 34.6703H72.2543V36.532H73.8063C74.0405 36.532 74.2331 36.4981 74.3841 36.4304C74.5427 36.3552 74.6598 36.2462 74.7353 36.1032C74.8184 35.9603 74.8599 35.7911 74.8599 35.5955ZM73.931 33.023C74.588 33.023 75.1318 33.1434 75.5623 33.3841C76.0004 33.6173 76.3251 33.9294 76.5366 34.3206C76.7556 34.7117 76.8652 35.1367 76.8652 35.5955C76.8652 35.9114 76.8047 36.2236 76.6839 36.532C76.5706 36.8404 76.3931 37.1187 76.1514 37.3669C75.9173 37.6151 75.6152 37.8145 75.2451 37.9649C74.875 38.1078 74.437 38.1793 73.931 38.1793H72.2543V40.921H70.283V33.023H73.931ZM74.9279 37.5023L76.9331 40.921H74.758L72.866 37.5023H74.9279Z" fill="black"/>
<path d="M83.3169 40.921H80.8925L78.8646 33.023H81.0171L82.1274 38.608L83.4868 33.023H85.6847L87.0102 38.5968L88.1317 33.023H90.2729L88.245 40.921H85.8319L84.5744 35.8099L83.3169 40.921Z" fill="black"/>
<path d="M89.7643 40.921L92.6645 33.023H95.78L98.6575 40.921H96.6296L96.0632 39.3414H92.3586L91.8035 40.921H89.7643ZM94.3978 34.6703H94.0013L92.9364 37.6941H95.4627L94.3978 34.6703Z" fill="black"/>
<path d="M103.173 33.023H105.427L102.652 38.326V40.921H100.68V38.326L97.8933 33.023H100.148L101.666 36.2838L103.173 33.023Z" fill="black"/>
<path d="M48.5781 25.0535H50.106L48.2249 28.6476V30.4064H46.8889V28.6476L45 25.0535H46.528L47.5569 27.2635L48.5781 25.0535Z" fill="black"/>
<path d="M52.9059 30.4599C52.522 30.4599 52.1637 30.3937 51.831 30.2611C51.4982 30.1286 51.2039 29.9425 50.948 29.7029C50.6971 29.4582 50.5001 29.1702 50.3567 28.8388C50.2134 28.5023 50.1417 28.1327 50.1417 27.73C50.1417 27.3272 50.2134 26.9602 50.3567 26.6288C50.5001 26.2923 50.6971 26.0043 50.948 25.7647C51.2039 25.52 51.4982 25.3314 51.831 25.1988C52.1637 25.0663 52.522 25 52.9059 25C53.2898 25 53.6482 25.0663 53.9809 25.1988C54.3187 25.3314 54.6131 25.52 54.8639 25.7647C55.1147 26.0043 55.3118 26.2923 55.4551 26.6288C55.5984 26.9602 55.6701 27.3272 55.6701 27.73C55.6701 28.1327 55.5984 28.5023 55.4551 28.8388C55.3118 29.1702 55.1121 29.4582 54.8562 29.7029C54.6054 29.9425 54.3136 30.1286 53.9809 30.2611C53.6482 30.3937 53.2898 30.4599 52.9059 30.4599ZM52.9059 29.3205C53.1875 29.3205 53.4332 29.2517 53.643 29.1141C53.8529 28.9764 54.0167 28.7878 54.1344 28.5482C54.2522 28.3086 54.311 28.0359 54.311 27.73C54.311 27.419 54.2522 27.1463 54.1344 26.9117C54.0167 26.6721 53.8529 26.4835 53.643 26.3459C53.4332 26.2082 53.1875 26.1394 52.9059 26.1394C52.6193 26.1394 52.371 26.2082 52.1611 26.3459C51.9513 26.4835 51.7874 26.6721 51.6697 26.9117C51.5571 27.1463 51.5008 27.419 51.5008 27.73C51.5008 28.0359 51.5571 28.3086 51.6697 28.5482C51.7874 28.7878 51.9513 28.9764 52.1611 29.1141C52.371 29.2517 52.6193 29.3205 52.9059 29.3205Z" fill="black"/>
<path d="M56.4332 25.0535H57.7693V28.357C57.7693 28.5609 57.8102 28.7368 57.8921 28.8847C57.974 29.0274 58.0892 29.137 58.2376 29.2135C58.3861 29.2849 58.5601 29.3205 58.7598 29.3205C58.9645 29.3205 59.1437 29.2849 59.2972 29.2135C59.4508 29.137 59.5685 29.0274 59.6504 28.8847C59.7375 28.7368 59.781 28.5609 59.781 28.357V25.0535H61.117V28.2347C61.117 28.6068 61.053 28.9331 60.925 29.2135C60.7971 29.4888 60.6205 29.7207 60.3952 29.9094C60.1751 30.0929 59.9217 30.2305 59.6351 30.3223C59.3484 30.4141 59.049 30.4599 58.7367 30.4599C58.317 30.4599 57.9331 30.3784 57.585 30.2152C57.2369 30.047 56.9579 29.7998 56.7481 29.4735C56.5382 29.1421 56.4332 28.7292 56.4332 28.2347V25.0535Z" fill="black"/>
<path d="M65.1931 26.797C65.1931 26.6033 65.1343 26.4504 65.0165 26.3382C64.8988 26.2261 64.7196 26.17 64.479 26.17H63.4271V27.4317H64.479C64.6377 27.4317 64.7683 27.4088 64.8706 27.3629C64.9781 27.3119 65.0575 27.238 65.1087 27.1412C65.165 27.0443 65.1931 26.9296 65.1931 26.797ZM64.5635 25.0535C65.0088 25.0535 65.3774 25.1351 65.6692 25.2982C65.9661 25.4563 66.1862 25.6678 66.3295 25.9329C66.478 26.198 66.5522 26.4861 66.5522 26.797C66.5522 27.0112 66.5112 27.2227 66.4293 27.4317C66.3525 27.6408 66.2323 27.8294 66.0685 27.9976C65.9098 28.1659 65.705 28.3009 65.4542 28.4029C65.2034 28.4998 64.9065 28.5482 64.5635 28.5482H63.4271V30.4064H62.0911V25.0535H64.5635ZM65.2392 28.0894L66.5983 30.4064H65.124L63.8418 28.0894H65.2392Z" fill="black"/>
<path d="M71.6811 26.667C71.6811 26.4886 71.6248 26.3612 71.5122 26.2847C71.3996 26.2082 71.2384 26.17 71.0285 26.17H69.8614V27.1641H71.0131C71.223 27.1641 71.3868 27.1259 71.5045 27.0494C71.6223 26.9678 71.6811 26.8404 71.6811 26.667ZM73.1554 28.9382C73.1554 29.2339 73.0863 29.4913 72.9481 29.7105C72.815 29.9298 72.6153 30.1005 72.3491 30.2229C72.0881 30.3452 71.7656 30.4064 71.3817 30.4064H68.5254V25.0535H71.2972C71.6658 25.0535 71.978 25.1122 72.234 25.2294C72.495 25.3467 72.6921 25.5123 72.8252 25.7265C72.9634 25.9355 73.0325 26.1827 73.0325 26.4682C73.0325 26.7282 72.9788 26.9449 72.8713 27.1182C72.7638 27.2864 72.6128 27.4139 72.4183 27.5006C72.2289 27.5821 72.0113 27.6306 71.7656 27.6459L71.7886 27.6764C72.0804 27.6866 72.3261 27.7427 72.5257 27.8447C72.7305 27.9466 72.8866 28.0894 72.9941 28.2729C73.1016 28.4564 73.1554 28.6782 73.1554 28.9382ZM71.8117 28.747C71.8117 28.5635 71.7502 28.4284 71.6274 28.3417C71.5045 28.25 71.3356 28.2041 71.1206 28.2041H69.8614V29.29H71.136C71.351 29.29 71.5173 29.2441 71.6351 29.1523C71.7528 29.0605 71.8117 28.9255 71.8117 28.747ZM71.397 27.447H71.9652V27.8676H71.397V27.447Z" fill="black"/>
<path d="M73.9872 25.0535H75.3232V28.357C75.3232 28.5609 75.3642 28.7368 75.4461 28.8847C75.528 29.0274 75.6431 29.137 75.7916 29.2135C75.94 29.2849 76.1141 29.3205 76.3137 29.3205C76.5185 29.3205 76.6976 29.2849 76.8512 29.2135C77.0048 29.137 77.1225 29.0274 77.2044 28.8847C77.2914 28.7368 77.3349 28.5609 77.3349 28.357V25.0535H78.6709V28.2347C78.6709 28.6068 78.607 28.9331 78.479 29.2135C78.351 29.4888 78.1744 29.7207 77.9492 29.9094C77.7291 30.0929 77.4757 30.2305 77.189 30.3223C76.9024 30.4141 76.6029 30.4599 76.2907 30.4599C75.8709 30.4599 75.487 30.3784 75.1389 30.2152C74.7909 30.047 74.5119 29.7998 74.302 29.4735C74.0921 29.1421 73.9872 28.7292 73.9872 28.2347V25.0535Z" fill="black"/>
<path d="M80.6893 28.8541C80.7149 28.9917 80.7738 29.1013 80.8659 29.1829C80.958 29.2594 81.063 29.3154 81.1807 29.3511C81.2985 29.3817 81.4085 29.397 81.5109 29.397C81.7156 29.397 81.8897 29.346 82.033 29.2441C82.1763 29.1421 82.248 29.0121 82.248 28.8541C82.248 28.7164 82.1968 28.6068 82.0944 28.5253C81.9972 28.4437 81.8666 28.3749 81.7028 28.3188C81.539 28.2627 81.3573 28.2092 81.1577 28.1582C80.9632 28.1072 80.7687 28.046 80.5741 27.9747C80.3796 27.9033 80.2005 27.8115 80.0367 27.6994C79.878 27.5821 79.75 27.4343 79.6527 27.2559C79.5606 27.0723 79.5171 26.8429 79.5222 26.5676C79.5273 26.2261 79.6143 25.9406 79.7833 25.7112C79.9573 25.4767 80.1928 25.3008 80.4897 25.1835C80.7866 25.0612 81.1244 25 81.5032 25C81.8564 25 82.1687 25.051 82.44 25.1529C82.7113 25.2498 82.9365 25.3925 83.1156 25.5812C83.2948 25.7698 83.4176 25.9992 83.4842 26.2694L82.2557 26.4835C82.2403 26.3867 82.1942 26.3076 82.1175 26.2465C82.0458 26.1853 81.9588 26.1394 81.8564 26.1088C81.7591 26.0782 81.6619 26.0629 81.5646 26.0629C81.4418 26.0629 81.3292 26.0833 81.2268 26.1241C81.1244 26.1649 81.0399 26.2235 80.9734 26.3C80.912 26.3765 80.8813 26.4657 80.8813 26.5676C80.8813 26.6951 80.9299 26.8021 81.0271 26.8888C81.1244 26.9704 81.2549 27.0417 81.4187 27.1029C81.5825 27.159 81.7617 27.2176 81.9562 27.2788C82.1507 27.3349 82.3427 27.4037 82.5321 27.4853C82.7266 27.5617 82.9058 27.6586 83.0696 27.7759C83.2334 27.888 83.3639 28.0333 83.4612 28.2117C83.5584 28.3851 83.607 28.6017 83.607 28.8617C83.607 29.1625 83.5277 29.4353 83.369 29.68C83.2155 29.9196 82.9902 30.1107 82.6933 30.2535C82.4016 30.3911 82.0432 30.4599 81.6184 30.4599C81.2703 30.4599 80.9478 30.409 80.6509 30.307C80.3591 30.205 80.1083 30.0547 79.8984 29.8558C79.6937 29.6519 79.5529 29.3996 79.4761 29.0988L80.6893 28.8541Z" fill="black"/>
<path d="M84.4326 25.0535H85.7686V30.4064H84.4326V25.0535Z" fill="black"/>
<path d="M91.4519 25.0535V30.4064H90.1082L88.1042 27.1641V30.4064H86.7682V25.0535H88.1119L90.1159 28.3188V25.0535H91.4519Z" fill="black"/>
<path d="M96.4791 26.17H93.784V27.1717H95.6959V28.2117H93.784V29.29H96.4791V30.4064H92.448V25.0535H96.4791V26.17Z" fill="black"/>
<path d="M98.3697 28.8541C98.3953 28.9917 98.4542 29.1013 98.5463 29.1829C98.6385 29.2594 98.7434 29.3154 98.8611 29.3511C98.9789 29.3817 99.0889 29.397 99.1913 29.397C99.396 29.397 99.5701 29.346 99.7134 29.2441C99.8567 29.1421 99.9284 29.0121 99.9284 28.8541C99.9284 28.7164 99.8772 28.6068 99.7748 28.5253C99.6776 28.4437 99.5471 28.3749 99.3833 28.3188C99.2194 28.2627 99.0377 28.2092 98.8381 28.1582C98.6436 28.1072 98.4491 28.046 98.2545 27.9747C98.06 27.9033 97.8809 27.8115 97.7171 27.6994C97.5584 27.5821 97.4304 27.4343 97.3332 27.2559C97.241 27.0723 97.1975 26.8429 97.2026 26.5676C97.2077 26.2261 97.2948 25.9406 97.4637 25.7112C97.6377 25.4767 97.8732 25.3008 98.1701 25.1835C98.467 25.0612 98.8048 25 99.1836 25C99.5368 25 99.8491 25.051 100.12 25.1529C100.392 25.2498 100.617 25.3925 100.796 25.5812C100.975 25.7698 101.098 25.9992 101.165 26.2694L99.9361 26.4835C99.9207 26.3867 99.8747 26.3076 99.7979 26.2465C99.7262 26.1853 99.6392 26.1394 99.5368 26.1088C99.4396 26.0782 99.3423 26.0629 99.245 26.0629C99.1222 26.0629 99.0096 26.0833 98.9072 26.1241C98.8048 26.1649 98.7204 26.2235 98.6538 26.3C98.5924 26.3765 98.5617 26.4657 98.5617 26.5676C98.5617 26.6951 98.6103 26.8021 98.7076 26.8888C98.8048 26.9704 98.9353 27.0417 99.0992 27.1029C99.263 27.159 99.4421 27.2176 99.6366 27.2788C99.8312 27.3349 100.023 27.4037 100.213 27.4853C100.407 27.5617 100.586 27.6586 100.75 27.7759C100.914 27.888 101.044 28.0333 101.142 28.2117C101.239 28.3851 101.287 28.6017 101.287 28.8617C101.287 29.1625 101.208 29.4353 101.049 29.68C100.896 29.9196 100.671 30.1107 100.374 30.2535C100.082 30.3911 99.7237 30.4599 99.2988 30.4599C98.9507 30.4599 98.6282 30.409 98.3313 30.307C98.0396 30.205 97.7887 30.0547 97.5789 29.8558C97.3741 29.6519 97.2333 29.3996 97.1566 29.0988L98.3697 28.8541Z" fill="black"/>
<path d="M103.082 28.8541C103.108 28.9917 103.167 29.1013 103.259 29.1829C103.351 29.2594 103.456 29.3154 103.574 29.3511C103.691 29.3817 103.801 29.397 103.904 29.397C104.109 29.397 104.283 29.346 104.426 29.2441C104.569 29.1421 104.641 29.0121 104.641 28.8541C104.641 28.7164 104.59 28.6068 104.487 28.5253C104.39 28.4437 104.26 28.3749 104.096 28.3188C103.932 28.2627 103.75 28.2092 103.551 28.1582C103.356 28.1072 103.162 28.046 102.967 27.9747C102.773 27.9033 102.593 27.8115 102.43 27.6994C102.271 27.5821 102.143 27.4343 102.046 27.2559C101.954 27.0723 101.91 26.8429 101.915 26.5676C101.92 26.2261 102.007 25.9406 102.176 25.7112C102.35 25.4767 102.586 25.3008 102.883 25.1835C103.18 25.0612 103.517 25 103.896 25C104.249 25 104.562 25.051 104.833 25.1529C105.104 25.2498 105.329 25.3925 105.509 25.5812C105.688 25.7698 105.811 25.9992 105.877 26.2694L104.649 26.4835C104.633 26.3867 104.587 26.3076 104.51 26.2465C104.439 26.1853 104.352 26.1394 104.249 26.1088C104.152 26.0782 104.055 26.0629 103.958 26.0629C103.835 26.0629 103.722 26.0833 103.62 26.1241C103.517 26.1649 103.433 26.2235 103.366 26.3C103.305 26.3765 103.274 26.4657 103.274 26.5676C103.274 26.6951 103.323 26.8021 103.42 26.8888C103.517 26.9704 103.648 27.0417 103.812 27.1029C103.975 27.159 104.155 27.2176 104.349 27.2788C104.544 27.3349 104.736 27.4037 104.925 27.4853C105.12 27.5617 105.299 27.6586 105.463 27.7759C105.626 27.888 105.757 28.0333 105.854 28.2117C105.951 28.3851 106 28.6017 106 28.8617C106 29.1625 105.921 29.4353 105.762 29.68C105.608 29.9196 105.383 30.1107 105.086 30.2535C104.795 30.3911 104.436 30.4599 104.011 30.4599C103.663 30.4599 103.341 30.409 103.044 30.307C102.752 30.205 102.501 30.0547 102.291 29.8558C102.087 29.6519 101.946 29.3996 101.869 29.0988L103.082 28.8541Z" fill="black"/>
<defs>
<clipPath id="clip0_5324_1391">
<rect width="37" height="14" fill="white" transform="translate(57 7)"/>
</clipPath>
</defs>
</svg>
