<svg width="32" height="32" viewBox="0 0 32 32" fill="none" xmlns="http://www.w3.org/2000/svg">
<g id="&#233;&#161;&#181;&#233;&#157;&#162;-1">
<g id="Contact">
<g id="mail_send_line">
<path id="&#229;&#189;&#162;&#231;&#138;&#182;" d="M26.6667 5.33337C28.0725 5.33337 29.2242 6.42121 29.326 7.80102L29.3333 8.00004V24C29.3333 25.4059 28.2455 26.5576 26.8657 26.6594L26.6667 26.6667H5.33333C3.92752 26.6667 2.77578 25.5789 2.67398 24.1991L2.66667 24V22.6667H5.33333V24H26.6667V9.88587L17.4143 19.1382C16.6821 19.8704 15.5233 19.9162 14.7378 19.2755L14.5859 19.1382L5.33333 9.88565V10.6667H2.66667V8.00004C2.66667 6.59422 3.7545 5.44249 5.13432 5.34069L5.33333 5.33337H26.6667ZM8 17.3334C8.73637 17.3334 9.33333 17.9303 9.33333 18.6667C9.33333 19.4031 8.73637 20 8 20H1.33333C0.596953 20 0 19.4031 0 18.6667C0 17.9303 0.596953 17.3334 1.33333 17.3334H8ZM24.7812 8.00004H7.21895L16.0001 16.7812L24.7812 8.00004ZM6.66667 13.3334C7.40304 13.3334 8 13.9303 8 14.6667C8 15.3505 7.48527 15.9141 6.82216 15.9911L6.66667 16H2.66667C1.93029 16 1.33333 15.4031 1.33333 14.6667C1.33333 13.9829 1.84806 13.4194 2.51117 13.3423L2.66667 13.3334H6.66667Z" fill="#001AFF"/>
</g>
</g>
</g>
</svg>
