<svg width="32" height="32" viewBox="0 0 32 32" fill="none" xmlns="http://www.w3.org/2000/svg">
<g id="&#233;&#161;&#181;&#233;&#157;&#162;-1">
<g id="Contact">
<g id="phone_line">
<path id="&#229;&#189;&#162;&#231;&#138;&#182;" fill-rule="evenodd" clip-rule="evenodd" d="M10.8954 21.1047C16.0232 26.2324 20.7736 26.7939 22.1679 26.8452C23.8539 26.9072 25.5736 25.5311 26.3168 24.1208C25.1307 22.7287 23.5856 21.6489 21.8927 20.4783C20.895 21.476 19.6646 23.3297 18.0248 22.6665C17.0938 22.29 14.7921 21.2301 12.781 19.2191C10.7699 17.2079 9.71006 14.9063 9.33352 13.9753C8.66976 12.3341 10.5277 11.1015 11.5261 10.103C10.3561 8.38209 9.29412 6.79757 7.90491 5.67093C6.47635 6.41825 5.0921 8.12493 5.15491 9.83216C5.20622 11.2264 5.76768 15.9769 10.8954 21.1047ZM22.0697 29.51C20.1486 29.4393 14.7076 28.6881 9.0098 22.9903C3.31195 17.2924 2.56075 11.8515 2.49006 9.93023C2.38232 7.00295 4.62472 4.15869 7.2162 3.04807C7.82428 2.78745 8.5608 2.83515 9.14304 3.25985C11.2865 4.82341 12.7654 7.19375 14.0355 9.04975C14.5766 9.84049 14.4872 10.9132 13.8003 11.6002L11.9917 13.4087C12.4115 14.3357 13.2678 15.9345 14.6667 17.3333C16.0655 18.7323 17.6643 19.5885 18.5914 20.0084L20.399 18.2007C21.0865 17.5132 22.1639 17.4225 22.9564 17.9716C24.8498 19.2833 27.0734 20.7413 28.6947 22.8177C29.15 23.4009 29.2178 24.1636 28.9462 24.7975C27.8304 27.4009 25.007 29.6181 22.0697 29.51Z" fill="#001AFF"/>
</g>
</g>
</g>
</svg>
