<svg width="120" height="120" viewBox="0 0 120 120" fill="none" xmlns="http://www.w3.org/2000/svg">
<path d="M100.961 71.1806C101.116 70.561 101.354 69.9922 101.675 69.4742C102.007 68.959 102.434 68.5214 102.955 68.1614C103.487 67.8043 104.131 67.5529 104.885 67.4073L105.434 69.2337C104.688 69.4412 104.104 69.7434 103.681 70.1401C103.259 70.5368 102.964 71.0676 102.798 71.7323C102.643 72.3519 102.662 72.8534 102.853 73.2368C103.042 73.6315 103.372 73.8882 103.845 74.0071C104.127 74.0779 104.387 74.0656 104.627 73.9701C104.875 73.8887 105.134 73.6904 105.404 73.3751C105.683 73.074 105.983 72.6166 106.304 72.0028C106.754 71.1581 107.206 70.5234 107.66 70.0985C108.124 69.6765 108.602 69.4192 109.092 69.3269C109.593 69.2373 110.108 69.2591 110.638 69.3922C111.291 69.5564 111.821 69.8514 112.23 70.2773C112.638 70.7033 112.911 71.2389 113.049 71.8843C113.187 72.5296 113.157 73.2466 112.96 74.0352C112.726 74.9703 112.353 75.6967 111.84 76.2145C111.325 76.7435 110.718 77.1358 110.02 77.3913L109.357 75.5184C109.855 75.2964 110.238 75.0095 110.506 74.6577C110.782 74.3199 110.972 73.9426 111.076 73.5258C111.226 72.9287 111.221 72.4427 111.064 72.0678C110.917 71.6957 110.625 71.4545 110.185 71.344C109.814 71.2506 109.455 71.322 109.108 71.5583C108.762 71.7945 108.372 72.3251 107.938 73.15C107.465 74.0369 106.996 74.7153 106.531 75.1853C106.078 75.658 105.592 75.949 105.074 76.0583C104.565 76.1816 103.994 76.164 103.364 76.0055C102.722 75.8441 102.188 75.5364 101.763 75.0822C101.338 74.6281 101.048 74.0643 100.893 73.3908C100.736 72.7285 100.758 71.9918 100.961 71.1806Z" fill="#A6AFFF"/>
<path d="M96.5102 81.9142C97.1079 80.8647 97.8577 80.0763 98.7595 79.5488C99.6713 79.0272 100.649 78.7773 101.692 78.7992C102.74 78.837 103.773 79.1473 104.79 79.73C105.556 80.1686 106.19 80.6986 106.691 81.3202C107.197 81.9576 107.554 82.644 107.764 83.3794C107.967 84.1249 108.019 84.8905 107.919 85.6762C107.819 86.462 107.553 87.2333 107.122 87.9901C106.45 89.1708 105.651 89.9982 104.726 90.4723C103.802 90.9463 102.776 91.1623 101.651 91.1202L102.04 89.1349C102.896 89.0631 103.589 88.8441 104.118 88.4781C104.642 88.1221 105.079 87.6363 105.429 87.0208C105.803 86.3648 105.98 85.6901 105.961 84.9966C105.951 84.3089 105.761 83.6578 105.389 83.0435C105.017 82.4292 104.479 81.9201 103.773 81.5162C103.068 81.1123 102.357 80.9059 101.64 80.897C100.923 80.8882 100.262 81.0516 99.6568 81.3874C99.0614 81.7289 98.5769 82.2277 98.2033 82.8836C97.8527 83.4991 97.6576 84.1234 97.6178 84.7563C97.5724 85.3994 97.7363 86.1088 98.1097 86.8846L96.6021 88.2294C95.994 87.2791 95.6586 86.2841 95.5958 85.2445C95.533 84.205 95.8378 83.0949 96.5102 81.9142Z" fill="#A6AFFF"/>
<path d="M92.9436 87.6655L101.198 96.1855L98.0655 99.236C97.4748 99.8113 96.8337 100.193 96.142 100.38C95.4584 100.576 94.7858 100.582 94.1241 100.4C93.4541 100.226 92.8525 99.8634 92.3192 99.3129C91.7859 98.7624 91.4421 98.1489 91.2879 97.4723C91.1254 96.8039 91.1516 96.1299 91.3665 95.4505C91.5895 94.7795 91.9963 94.1563 92.587 93.581L94.5587 91.6608L95.892 93.037L94.1075 94.775C93.5917 95.2773 93.3052 95.7994 93.2481 96.3413C93.1908 96.8997 93.3803 97.404 93.8166 97.8544C94.2853 98.3382 94.7907 98.5511 95.3329 98.4932C95.8748 98.4518 96.4036 98.1799 96.9194 97.6775L98.7164 95.9274L98.732 96.5444L91.4961 89.0753L92.9436 87.6655ZM88.3139 92.1744L93.6416 93.8184L92.0567 95.3619L86.7291 93.7179L88.3139 92.1744Z" fill="#A6AFFF"/>
<path d="M88.209 100.321C88.6143 101.105 88.8537 101.897 88.9271 102.696C89.0058 103.506 88.9284 104.279 88.6947 105.016C88.4508 105.758 88.0684 106.434 87.5476 107.045C87.0165 107.661 86.3542 108.176 85.5608 108.588C84.7879 108.99 84.0025 109.228 83.2043 109.302C82.4062 109.377 81.6396 109.298 80.9047 109.064C80.1594 108.837 79.4795 108.457 78.8649 107.926C78.2557 107.405 77.7484 106.752 77.3431 105.968C76.9378 105.184 76.6984 104.393 76.625 103.593C76.5516 102.794 76.6342 102.018 76.8728 101.266C77.1065 100.529 77.4837 99.8553 78.0045 99.2444C78.5253 98.6334 79.1721 98.1271 79.945 97.7255C80.7384 97.3131 81.5393 97.067 82.3478 96.9871C83.1459 96.9126 83.9176 96.9892 84.6629 97.217C85.4032 97.4604 86.078 97.8427 86.6872 98.3636C87.2964 98.8846 87.8037 99.5371 88.209 100.321ZM86.3852 101.269C86.0118 100.547 85.5266 99.9876 84.9295 99.5913C84.3274 99.2105 83.6706 99.0022 82.9592 98.9662C82.253 98.9406 81.5496 99.1098 80.8489 99.474C80.1585 99.8328 79.6254 100.306 79.2496 100.894C78.8688 101.498 78.6678 102.158 78.6467 102.876C78.6255 103.594 78.799 104.309 79.167 105.02C79.5456 105.753 80.0308 106.312 80.6226 106.698C81.2197 107.095 81.8714 107.306 82.5775 107.331C83.2733 107.362 83.9664 107.198 84.6568 106.84C85.3575 106.475 85.8982 105.991 86.279 105.388C86.6652 104.795 86.874 104.136 86.9054 103.413C86.9319 102.706 86.7585 101.991 86.3852 101.269Z" fill="#A6AFFF"/>
<path d="M65.3687 102.707L72.2032 101.264L74.6417 112.874L72.6646 113.291L70.5198 103.08L70.9609 103.485L65.7626 104.583L65.3687 102.707Z" fill="#A6AFFF"/>
<path d="M55.3781 102.8L62.3613 102.962L62.0874 114.821L60.0673 114.774L60.3082 104.343L60.6453 104.839L55.3338 104.715L55.3781 102.8Z" fill="#A6AFFF"/>
<path d="M46.5759 100.935L41.8433 111.813L38.1885 110.214C37.1139 109.744 36.262 109.112 35.6327 108.317C35.0034 107.522 34.6383 106.614 34.5376 105.594C34.4322 104.585 34.6273 103.51 35.1231 102.371C35.6234 101.221 36.2837 100.344 37.104 99.7391C37.9136 99.1299 38.8207 98.7915 39.8253 98.7238C40.8252 98.6669 41.8625 98.8734 42.9371 99.3434L46.5759 100.935ZM44.1895 101.355L44.5826 102.154L42.2844 101.149C41.5928 100.847 40.9201 100.705 40.2663 100.723C39.5972 100.747 38.9872 100.956 38.4364 101.349C37.8703 101.747 37.4042 102.367 37.0382 103.209C36.6815 104.029 36.5446 104.78 36.6275 105.463C36.7057 106.156 36.9613 106.762 37.3941 107.281C37.8163 107.795 38.3731 108.203 39.0647 108.506L41.4906 109.567L40.4923 109.853L44.1895 101.355Z" fill="#A6AFFF"/>
<path d="M33.1395 101.233C32.5632 101.901 31.9184 102.418 31.205 102.783C30.484 103.157 29.739 103.372 28.9702 103.428C28.1926 103.477 27.4243 103.372 26.6655 103.114C25.8979 102.848 25.1762 102.423 24.5005 101.837C23.8422 101.267 23.3309 100.624 22.9663 99.9085C22.6017 99.193 22.3914 98.4499 22.3353 97.6791C22.2704 96.9006 22.3702 96.1266 22.6349 95.3572C22.8919 94.5965 23.3086 93.8819 23.8848 93.2134C24.461 92.5449 25.1059 92.028 25.8193 91.6628C26.5327 91.2975 27.2821 91.0863 28.0673 91.0292C28.8361 90.9732 29.5999 91.0742 30.3588 91.3322C31.1176 91.5902 31.8261 92.0044 32.4843 92.5748C33.1601 93.1604 33.6847 93.8147 34.058 94.5377C34.4225 95.2531 34.6373 96 34.7022 96.7785C34.7507 97.5581 34.6465 98.3283 34.3894 99.089C34.1324 99.8497 33.7157 100.564 33.1395 101.233ZM31.5861 99.8867C32.1168 99.271 32.4552 98.6115 32.6014 97.9084C32.7312 97.2064 32.681 96.5176 32.4509 95.8419C32.2132 95.1749 31.796 94.5829 31.1992 94.0657C30.6112 93.5562 29.9752 93.2356 29.2914 93.1041C28.5912 92.9737 27.9048 93.0319 27.232 93.2788C26.5593 93.5256 25.9614 93.9525 25.4382 94.5594C24.8999 95.184 24.5615 95.8434 24.4229 96.5377C24.2768 97.2409 24.3225 97.9259 24.5602 98.5929C24.7891 99.2522 25.1976 99.8367 25.7856 100.346C26.3824 100.863 27.0309 101.187 27.7311 101.317C28.4237 101.457 29.1107 101.407 29.7922 101.167C30.4574 100.929 31.0553 100.502 31.5861 99.8867Z" fill="#A6AFFF"/>
<path d="M21.5043 78.7761L13.9034 86.6429L12.8702 87.692L11.9297 85.9827L19.8019 77.8863L20.125 78.7627L9.43589 81.4499L8.45346 79.6642L20.3959 76.7616L21.5043 78.7761ZM25.1653 85.4304L16.3465 94.0105L15.364 92.2248L23.3326 84.5927L23.8996 85.3342L12.8702 87.692L11.9297 85.9827L13.366 85.6661L24.0569 83.4158L25.1653 85.4304Z" fill="#A6AFFF"/>
<path d="M17.3453 63.7473L8.98897 72.3445L8.56263 71.3873L18.276 69.9136L18.5775 71.9116L6.84918 73.6911L6.58402 71.9342L14.696 63.5854L14.8673 64.3699L5.65336 65.7679L5.35181 63.7699L17.0802 61.9904L17.3453 63.7473Z" fill="#A6AFFF"/>
<path d="M19.1787 48.2939C19.0144 48.9111 18.7678 49.4762 18.439 49.9893C18.0989 50.4994 17.6657 50.9304 17.1393 51.2824C16.6018 51.6315 15.9546 51.873 15.1979 52.0071L14.6768 50.1726C15.4261 49.9764 16.0149 49.6832 16.4432 49.2929C16.8716 48.9026 17.1739 48.3765 17.3502 47.7144C17.5145 47.0971 17.5038 46.5954 17.3183 46.2091C17.1357 45.8116 16.8088 45.5498 16.3376 45.4237C16.0572 45.3487 15.7966 45.3571 15.5558 45.4489C15.3068 45.5265 15.0448 45.7209 14.7697 46.032C14.4864 46.3288 14.1795 46.7816 13.8492 47.3905C13.3858 48.2282 12.9243 48.856 12.4645 49.2739C11.9935 49.6889 11.5124 49.9388 11.0211 50.0237C10.5186 50.1056 10.0037 50.076 9.47648 49.9349C8.82583 49.7608 8.29965 49.4576 7.89794 49.0255C7.49622 48.5934 7.23132 48.0537 7.10323 47.4063C6.97515 46.7589 7.01567 46.0425 7.2248 45.2569C7.47276 44.3255 7.8569 43.6048 8.37721 43.0949C8.9005 42.5738 9.5132 42.1908 10.2153 41.9459L10.8497 43.8288C10.348 44.0431 9.96072 44.3242 9.68788 44.6719C9.40682 45.0054 9.21101 45.3798 9.10047 45.795C8.94213 46.3898 8.93893 46.8758 9.09086 47.253C9.23157 47.6273 9.52068 47.873 9.95818 47.9901C10.3284 48.0892 10.6884 48.0232 11.0383 47.7923C11.3882 47.5613 11.7863 47.0367 12.2324 46.2185C12.719 45.3389 13.1981 44.6677 13.6698 44.2048C14.1303 43.739 14.6204 43.4554 15.1401 43.3541C15.6516 43.2385 16.2214 43.2648 16.8496 43.4329C17.489 43.6041 18.0178 43.9199 18.436 44.3804C18.8542 44.841 19.1355 45.4092 19.2801 46.085C19.4276 46.7496 19.3938 47.4859 19.1787 48.2939Z" fill="#A6AFFF"/>
<path d="M23.6376 37.8612C23.0284 38.904 22.27 39.6841 21.3624 40.2015C20.4449 40.7131 19.4646 40.9522 18.4216 40.9187C17.3745 40.8693 16.3453 40.5476 15.3339 39.9536C14.5729 39.5067 13.9452 38.9696 13.4507 38.3426C12.9522 37.6996 12.6023 37.0093 12.4012 36.2716C12.2059 35.5239 12.1626 34.7577 12.2713 33.9731C12.38 33.1885 12.654 32.4202 13.0934 31.6682C13.7788 30.495 14.5865 29.6765 15.5166 29.2127C16.4466 28.7488 17.474 28.5442 18.5988 28.5988L18.1879 30.5796C17.3311 30.642 16.636 30.8533 16.1028 31.2135C15.5754 31.5637 15.133 32.0446 14.7757 32.6562C14.3949 33.308 14.2103 33.9807 14.222 34.6744C14.2236 35.3622 14.4069 36.0153 14.7719 36.6337C15.1369 37.2521 15.6699 37.7672 16.3708 38.1789C17.0717 38.5905 17.7805 38.8048 18.4969 38.8216C19.2134 38.8383 19.8762 38.6822 20.4854 38.3531C21.0846 38.0182 21.5746 37.5249 21.9554 36.8731C22.3127 36.2615 22.5147 35.6394 22.5615 35.0069C22.6141 34.3644 22.458 33.6532 22.0932 32.8733L23.6155 31.5453C24.2131 32.5023 24.5375 33.5009 24.5888 34.5411C24.6401 35.5813 24.323 36.688 23.6376 37.8612Z" fill="#A6AFFF"/>
<path d="M27.2263 32.1319L19.0656 23.5224L22.2309 20.5062C22.8278 19.9374 23.4731 19.5631 24.1667 19.3834C24.8524 19.1952 25.5251 19.1958 26.1847 19.3853C26.8528 19.5668 27.4504 19.9357 27.9777 20.492C28.505 21.0482 28.842 21.6655 28.9889 22.3437C29.1441 23.0138 29.1105 23.6874 28.8882 24.3645C28.6579 25.0331 28.2443 25.6517 27.6474 26.2205L25.6549 28.1192L24.3367 26.7285L26.1401 25.0101C26.6613 24.5134 26.9534 23.9945 27.0164 23.4532C27.0798 22.8955 26.8958 22.3891 26.4644 21.934C26.0011 21.4451 25.498 21.2267 24.9553 21.2787C24.4129 21.3143 23.8812 21.5804 23.3599 22.0771L21.544 23.8075L21.535 23.1904L28.6892 30.7379L27.2263 32.1319ZM31.9049 27.6736L26.5955 25.9717L28.1971 24.4456L33.5065 26.1475L31.9049 27.6736Z" fill="#A6AFFF"/>
<path d="M32.1781 19.4373C31.7815 18.6488 31.5509 17.8545 31.4864 17.0543C31.4166 16.2437 31.5027 15.4715 31.7445 14.7376C31.9967 13.9984 32.3865 13.3263 32.9141 12.7212C33.452 12.1108 34.12 11.6039 34.918 11.2004C35.6952 10.8074 36.4833 10.578 37.2822 10.5124C38.0812 10.4467 38.8468 10.5346 39.5791 10.7759C40.3218 11.0119 40.9975 11.399 41.6062 11.9371C42.2096 12.4648 42.7096 13.1229 43.1062 13.9113C43.5028 14.6998 43.7333 15.4941 43.7979 16.2943C43.8624 17.0945 43.7712 17.8694 43.5242 18.6189C43.2824 19.3528 42.8977 20.0223 42.3701 20.6274C41.8426 21.2325 41.1902 21.7316 40.4129 22.1246C39.6149 22.5281 38.8113 22.7653 38.002 22.8362C37.2031 22.9019 36.4323 22.8167 35.6896 22.5806C34.952 22.3289 34.2815 21.9392 33.6781 21.4115C33.0747 20.8838 32.5747 20.2257 32.1781 19.4373ZM34.0124 18.5097C34.3777 19.2359 34.8566 19.8006 35.4493 20.2036C36.0472 20.591 36.7016 20.8066 37.4126 20.8505C38.1184 20.8839 38.8237 20.7225 39.5284 20.3662C40.2227 20.0151 40.7611 19.5477 41.1434 18.9639C41.5309 18.3646 41.7392 17.7062 41.7683 16.9888C41.7974 16.2713 41.6319 15.5547 41.2719 14.8389C40.9014 14.1023 40.4224 13.5377 39.8349 13.145C39.2422 12.742 38.593 12.5238 37.8872 12.4903C37.1917 12.4516 36.4968 12.6077 35.8025 12.9588C35.0978 13.3152 34.5517 13.793 34.1642 14.3924C33.7715 14.9814 33.5554 15.6372 33.5159 16.3598C33.4816 17.0669 33.6471 17.7835 34.0124 18.5097Z" fill="#A6AFFF"/>
<path d="M54.8877 17.3262L48.0371 18.6908L45.7315 7.05448L47.7132 6.65974L49.7412 16.8949L49.3047 16.4846L54.5153 15.4467L54.8877 17.3262Z" fill="#A6AFFF"/>
<path d="M64.8177 17.2962L57.8368 17.0536L58.2488 5.19819L60.2682 5.26836L59.9058 15.6963L59.5746 15.1967L64.8843 15.3812L64.8177 17.2962Z" fill="#A6AFFF"/>
<path d="M73.7403 19.2158L78.594 8.39168L82.2306 10.031C83.2999 10.513 84.1447 11.155 84.7651 11.9569C85.3855 12.7589 85.7404 13.6704 85.8297 14.6915C85.9239 15.7021 85.7167 16.7743 85.2083 17.9081C84.6951 19.0525 84.0251 19.9223 83.1981 20.5177C82.3818 21.1178 81.471 21.446 80.4657 21.5024C79.4652 21.5482 78.4303 21.33 77.361 20.848L73.7403 19.2158ZM76.1312 18.8224L75.7471 18.0186L78.0339 19.0495C78.722 19.3597 79.3931 19.5094 80.0471 19.4984C80.7164 19.4817 81.3286 19.28 81.8838 18.8934C82.4543 18.5009 82.9273 17.8861 83.3026 17.049C83.6685 16.2331 83.8138 15.4833 83.7385 14.7998C83.668 14.1056 83.4193 13.4966 82.9923 12.973C82.5759 12.4541 82.0236 12.0395 81.3355 11.7293L78.9216 10.6412L79.923 10.3665L76.1312 18.8224Z" fill="#A6AFFF"/>
<path d="M87.1746 19.0153C87.7581 18.3531 88.4085 17.8433 89.1259 17.4859C89.8509 17.1197 90.5982 16.9128 91.3676 16.8653C92.1457 16.8254 92.9127 16.9386 93.6687 17.2048C94.4333 17.4788 95.1503 17.9123 95.8196 18.5052C96.4716 19.0827 96.976 19.7311 97.3327 20.4505C97.6894 21.1699 97.8916 21.9152 97.9393 22.6867C97.9958 23.4658 97.8875 24.2386 97.6144 25.0052C97.3491 25.763 96.9247 26.473 96.3412 27.1352C95.7577 27.7974 95.1073 28.3072 94.3899 28.6646C93.6725 29.022 92.9209 29.2251 92.1352 29.2737C91.3658 29.3213 90.6031 29.2119 89.8471 28.9456C89.0912 28.6794 88.3872 28.2575 87.7352 27.6799C87.0659 27.087 86.5485 26.427 86.1831 25.7C85.8264 24.9806 85.6198 24.2314 85.5634 23.4522C85.5233 22.6721 85.636 21.9031 85.9013 21.1453C86.1667 20.3875 86.5911 19.6774 87.1746 19.0153ZM88.7132 20.3782C88.1758 20.9881 87.8302 21.6438 87.6764 22.3453C87.539 23.0458 87.5816 23.7352 87.8043 24.4134C88.0347 25.0829 88.4455 25.6795 89.0366 26.2031C89.619 26.719 90.2514 27.0465 90.9337 27.1855C91.6325 27.3235 92.3195 27.2728 92.9949 27.0333C93.6702 26.7938 94.2728 26.3735 94.8025 25.7723C95.3477 25.1536 95.6933 24.4979 95.8394 23.8051C95.9932 23.1036 95.9549 22.4181 95.7245 21.7486C95.5028 21.0868 95.1007 20.498 94.5183 19.982C93.9272 19.4584 93.2823 19.1276 92.5836 18.9896C91.8925 18.8429 91.205 18.8854 90.5209 19.1172C89.8532 19.348 89.2507 19.7683 88.7132 20.3782Z" fill="#A6AFFF"/>
<path d="M98.6596 41.6654L106.347 33.8836L107.392 32.8459L108.313 34.5656L100.352 42.5741L100.039 41.6942L110.757 39.1257L111.72 40.9221L99.7456 43.6921L98.6596 41.6654ZM95.0724 34.9711L103.986 26.4894L104.948 28.2858L96.8958 35.829L96.337 35.0813L107.392 32.8459L108.313 34.5656L106.874 34.8662L96.1585 36.9978L95.0724 34.9711Z" fill="#A6AFFF"/>
<path d="M102.667 56.7547L111.122 48.2544L111.537 49.2165L101.807 50.5781L101.529 48.5767L113.277 46.9327L113.522 48.6925L105.314 56.947L105.152 56.1606L114.382 54.8691L114.66 56.8704L102.912 58.5145L102.667 56.7547Z" fill="#A6AFFF"/>
<path d="M61.5 32.9032C61.5 32.0748 60.8284 31.4032 60 31.4032C59.1716 31.4032 58.5 32.0748 58.5 32.9032L61.5 32.9032ZM58.9393 88.1574C59.5251 88.7432 60.4749 88.7432 61.0607 88.1574L70.6066 78.6115C71.1924 78.0257 71.1924 77.0759 70.6066 76.4901C70.0208 75.9044 69.0711 75.9044 68.4853 76.4901L60 84.9754L51.5147 76.4901C50.9289 75.9044 49.9792 75.9044 49.3934 76.4901C48.8076 77.0759 48.8076 78.0257 49.3934 78.6115L58.9393 88.1574ZM58.5 32.9032L58.5 87.0967L61.5 87.0967L61.5 32.9032L58.5 32.9032Z" fill="#A6AFFF"/>
</svg>
