<svg width="24" height="24" viewBox="0 0 24 24" fill="none" xmlns="http://www.w3.org/2000/svg">
<g clip-path="url(#clip0_5324_1565)">
<path fill-rule="evenodd" clip-rule="evenodd" d="M12.0007 13.4144L17.6575 19.0713C18.048 19.4618 18.6812 19.4618 19.0717 19.0713C19.4622 18.6807 19.4622 18.0476 19.0717 17.657L13.4149 12.0002L19.0717 6.34335C19.4622 5.95283 19.4622 5.31966 19.0717 4.92914C18.6812 4.53861 18.048 4.53861 17.6575 4.92914L12.0007 10.586L6.34382 4.92912C5.9533 4.5386 5.32013 4.5386 4.92961 4.92912C4.53909 5.31965 4.53909 5.95281 4.92961 6.34334L10.5864 12.0002L4.92961 17.6571C4.53909 18.0476 4.53909 18.6807 4.92961 19.0713C5.32013 19.4618 5.9533 19.4618 6.34382 19.0713L12.0007 13.4144Z" fill="black"/>
</g>
<defs>
<clipPath id="clip0_5324_1565">
<rect width="24" height="24" fill="white"/>
</clipPath>
</defs>
</svg>
